<svg width="65" height="65" viewBox="0 0 65 65" fill="none" xmlns="http://www.w3.org/2000/svg">
<path d="M32.7168 61.8835C49.1862 61.8835 62.5373 48.514 62.5373 32.0218C62.5373 15.5297 49.1862 2.16016 32.7168 2.16016C16.2475 2.16016 2.89648 15.5297 2.89648 32.0218C2.89648 48.514 16.2475 61.8835 32.7168 61.8835Z" stroke="#532A10" stroke-width="2" stroke-miterlimit="10" stroke-linecap="round" stroke-linejoin="round"/>
<path d="M35.0167 13.6055C35.7693 13.841 36.804 14.2178 37.9329 14.8301C43.8594 18.0329 47.1989 25.0038 47.6222 31.3623C48.1396 40.2172 42.8716 46.1989 41.6487 47.3765C39.2969 49.6373 36.8041 50.2496 36.8041 50.2496C36.2867 50.3909 35.8633 50.438 35.5811 50.438C38.9677 45.1627 39.2029 41.2534 38.7796 38.6629C37.8859 33.3876 34.123 32.8695 32.759 25.9929C32.4298 24.3444 31.5831 19.493 34.076 15.0185C34.4053 14.4062 34.7816 13.9352 35.0167 13.6055Z" stroke="#532A10" stroke-width="2" stroke-miterlimit="10" stroke-linecap="round" stroke-linejoin="round"/>
<path d="M29.7957 13.4648C26.5503 22.3668 27.585 27.6892 29.3724 30.9862C30.9716 33.9535 33.1352 35.131 34.0289 38.5694C35.2048 42.9968 33.2763 47.4713 31.3478 50.6271C29.4664 50.109 26.2681 48.9786 23.493 46.2468C16.6258 39.5585 15.8732 26.8414 21.8938 19.164C24.4807 15.9141 27.7262 14.2656 29.7957 13.4648Z" stroke="#532A10" stroke-width="2" stroke-miterlimit="10" stroke-linecap="round" stroke-linejoin="round"/>
</svg>
