<svg width="173" height="149" viewBox="0 0 173 149" fill="none" xmlns="http://www.w3.org/2000/svg">
<g filter="url(#filter0_d_1571_943)">
<path d="M106.21 40.0772L100.098 69.7997C99.6445 71.9756 98.7628 73.9981 97.4027 75.675C96.3082 77.1169 95.4468 78.8257 95.0177 80.6252L87.3473 110.248C87.1246 113.699 86.0372 116.968 84.1598 119.872C79.4812 127.384 70.0618 132.702 58.8988 134.003C56.564 134.295 54.1791 134.394 51.7439 134.301C51.3076 134.273 50.9335 134.249 50.4972 134.221C49.6868 134.169 48.9388 134.121 48.1948 134.011C46.0211 133.745 43.9179 133.358 41.8851 132.85C38.3765 131.932 35.1415 130.654 32.2385 129.082C32.0596 128.945 31.8143 128.866 31.6354 128.729C25.775 125.455 21.3128 120.885 18.9563 115.694C18.2431 114.137 17.721 112.528 17.3899 110.869C17.0589 109.21 16.9188 107.5 17.0322 105.743L13.2328 75.3856C13.0386 73.5462 12.3999 71.8042 11.5037 70.1718C10.4367 68.2765 9.76 66.1541 9.58599 64.001L7.34499 33.7434L19.0059 34.4274L56.7977 36.5966L68.5128 37.4101L106.21 40.0772Z" fill="#D6B7A6" stroke="#E89465" stroke-width="0.398412" stroke-miterlimit="10" stroke-linecap="round" stroke-linejoin="round"/>
<path d="M30.5795 115.995C31.2368 121.329 24.4226 124.105 21.2574 119.807C20.341 118.489 19.4869 117.174 18.8903 115.75C18.1771 114.192 17.655 112.584 17.3239 110.924C17.0471 109.395 16.8989 107.81 17.0002 106.242C17.0204 105.928 16.9743 105.673 16.9905 105.422L13.2874 75.5118C13.0931 73.6724 12.4544 71.9305 11.5583 70.2981C10.4913 68.4027 9.81459 66.2804 9.64059 64.1272L7.82932 39.8192C7.59543 36.6542 10.1424 34.0453 13.3255 34.1863L15.6943 34.338C17.7514 34.4698 19.5446 35.7817 20.2334 37.7158L21.0308 39.9089C21.1935 40.2973 21.2939 40.6818 21.3319 41.0622L30.5795 115.995Z" fill="#EDD2C2" stroke="#E89465" stroke-width="0.398412" stroke-miterlimit="10" stroke-linecap="round" stroke-linejoin="round"/>
<path d="M106.209 40.078L100.097 69.8004C99.6439 71.9764 98.7623 73.9989 97.4022 75.6758C96.3076 77.1177 95.4462 78.8265 95.0171 80.626L87.3467 110.249C87.124 113.699 86.0367 116.969 84.1593 119.872C80.3178 126.052 73.2575 130.703 64.664 132.924C58.4254 134.541 52.5862 129.001 53.689 122.582L68.4499 37.4069L106.209 40.078Z" fill="#C59A82" stroke="#E89465" stroke-width="0.398412" stroke-miterlimit="10" stroke-linecap="round" stroke-linejoin="round"/>
<path d="M99.2308 39.5654L93.9511 65.1202C93.5803 66.9864 92.7812 68.6992 91.6203 70.1998C91.073 70.9208 90.6504 71.6497 90.2861 72.4454C89.9963 73.0568 89.7647 73.735 89.5955 74.4171L83.0067 99.888C82.8164 102.837 81.8198 105.671 80.2824 108.155C76.3786 114.331 68.7654 118.821 59.6675 120.128C57.0129 120.525 54.1876 120.659 51.3201 120.475C38.6036 119.66 28.0713 113.127 24.1176 104.557C22.8499 101.893 22.2882 98.9591 22.4785 96.0102L19.2181 69.9084C19.138 69.2102 18.9955 68.5081 18.7867 67.8647C18.5276 67.0291 18.2063 66.1895 17.7562 65.4047C16.7977 63.7683 16.2877 61.9716 16.0975 60.0694L14.2045 34.1181L56.7339 36.5908L83.3392 38.4843L99.2308 39.5654Z" fill="#73421E" stroke="#E89465" stroke-width="0.398412" stroke-miterlimit="10" stroke-linecap="round" stroke-linejoin="round"/>
<path d="M99.2308 39.5654L93.943 65.2456C93.5722 67.1119 92.7108 68.8207 91.6122 70.3253C91.6122 70.3253 91.6122 70.3253 91.6082 70.3881C90.5095 71.8927 89.1074 73.2519 87.4259 74.0891C81.5387 77.051 74.7732 79.0745 67.3908 79.9876C63.0369 80.5276 58.5827 80.6833 53.9699 80.3878C41.6897 79.601 30.6053 75.8039 22.0192 70.1508C20.3969 69.1019 18.9858 67.6885 18.0937 65.9933C17.9812 65.7971 17.8687 65.6009 17.7562 65.4047C16.7936 63.831 16.346 62.0383 16.2141 60.2029L14.2045 34.1181L56.7339 36.5908L83.3392 38.4843L99.2308 39.5654Z" fill="#A15D35" stroke="#E89465" stroke-width="0.398412" stroke-miterlimit="10" stroke-linecap="round" stroke-linejoin="round"/>
<path d="M99.2319 39.5655L93.9441 65.2457C93.5732 67.112 92.7118 68.8208 91.6132 70.3254C91.1323 70.9876 90.7097 71.7165 90.3454 72.5122C90.0556 73.1236 89.824 73.8018 89.6548 74.4839L83.066 99.9548C82.8757 102.904 81.8791 105.738 80.3417 108.222C77.9712 111.976 74.2618 115.141 69.6156 117.3C65.3557 119.295 60.5915 115.525 61.5186 110.859L74.1678 44.8267L83.4026 38.4884L99.2319 39.5655Z" fill="#29150D" stroke="#E89465" stroke-width="0.398412" stroke-miterlimit="10" stroke-linecap="round" stroke-linejoin="round"/>
<path d="M99.2319 39.5645L93.9441 65.2447C93.5733 67.111 92.7118 68.8198 91.6132 70.3244C91.6132 70.3244 91.6132 70.3244 91.6092 70.3871C90.5106 71.8917 89.1084 73.2509 87.4269 74.0882C81.5397 77.05 74.7742 79.0736 67.3918 79.9866L74.1055 44.8217L83.3402 38.4834L99.2319 39.5645Z" fill="#73421E" stroke="#E89465" stroke-width="0.398412" stroke-miterlimit="10" stroke-linecap="round" stroke-linejoin="round"/>
<path d="M106.752 36.5197C105.719 52.5186 84.057 64.2348 57.7568 63.4318C56.8218 63.3719 55.945 63.3787 55.01 63.3188C27.5198 61.5577 6.07001 46.7015 7.13495 30.2007C8.20393 13.6372 31.3827 1.70314 58.8729 3.46432C84.6177 5.11367 105.055 18.204 106.697 33.4922C106.823 34.4453 106.821 35.4531 106.752 36.5197Z" fill="#FFFAF4" stroke="#E89465" stroke-width="0.398412" stroke-miterlimit="10" stroke-linecap="round" stroke-linejoin="round"/>
<path d="M106.751 36.5195C105.759 51.8909 85.617 63.3265 60.6979 63.4311C59.0067 63.4487 57.5957 62.0353 57.705 60.3413C57.705 60.3413 57.705 60.3413 57.7091 60.2786C58.7011 44.9071 78.8432 33.4715 103.762 33.367C105.453 33.3493 106.864 34.7627 106.751 36.5195Z" fill="#EDD2C2" stroke="#E89465" stroke-width="0.398412" stroke-miterlimit="10" stroke-linecap="round" stroke-linejoin="round"/>
<path d="M98.3989 35.9854C98.2571 38.1813 97.6831 40.2865 96.6185 42.2343C96.1174 43.2102 95.4915 44.1781 94.8034 45.142C88.7874 53.0096 75.8691 58.23 60.7109 58.3929C58.9574 58.4065 57.1456 58.3535 55.3379 58.2377C37.9461 57.1234 23.4649 49.7067 17.8848 40.1512C17.7723 39.955 17.718 39.8255 17.6055 39.6293C17.1595 38.7817 16.7134 37.9341 16.4584 37.0358C15.7153 34.9722 15.3543 32.8071 15.496 30.6111C16.3828 16.8709 35.6796 6.89322 58.557 8.35886C59.118 8.39481 59.679 8.43075 60.24 8.46669C76.6101 9.89345 90.1142 16.9326 95.6684 25.9194C97.6518 29.1335 98.6216 32.5346 98.3989 35.9854Z" fill="#A15D35" stroke="#E89465" stroke-width="0.398412" stroke-miterlimit="10" stroke-linecap="round" stroke-linejoin="round"/>
<path d="M98.3993 35.9855C98.2575 38.1815 97.6835 40.2867 96.6189 42.2345C96.1178 43.2104 95.492 44.1783 94.8038 45.1422C89.1983 52.4691 77.6093 57.4596 63.8484 58.279C61.8374 58.4022 59.837 57.392 58.8243 55.6262C58.7077 55.4927 58.6575 55.3005 58.541 55.167C58.0909 54.3822 57.7031 53.6013 57.4441 52.7657C56.7552 50.8316 56.4444 48.8587 56.578 46.7882C57.3919 34.1774 74.8243 24.9622 95.7271 25.9863C97.6522 29.1337 98.622 32.5348 98.3993 35.9855Z" fill="#73421E" stroke="#E89465" stroke-width="0.398412" stroke-miterlimit="10" stroke-linecap="round" stroke-linejoin="round"/>
<path d="M95.8027 31.5956C95.6731 33.6033 95.1072 35.5831 94.1754 37.4134C93.6783 38.3265 93.1189 39.2357 92.4388 40.0741C86.1532 48.2394 71.9259 53.3759 55.7185 52.3376C39.5111 51.2993 25.9989 44.3856 20.877 35.4895C20.7605 35.356 20.7103 35.1638 20.5937 35.0303C20.1436 34.2455 19.8222 33.4059 19.4968 32.629C18.8079 30.6949 18.4971 28.722 18.6307 26.6515C19.4567 13.8524 37.396 4.54373 58.7149 5.90953C59.2136 5.94148 59.7746 5.97743 60.2733 6.00937C80.8701 7.89592 96.6085 19.1102 95.8027 31.5956Z" fill="#D09461" stroke="#E89465" stroke-width="0.398412" stroke-miterlimit="10" stroke-linecap="round" stroke-linejoin="round"/>
<path d="M69.2889 19.5666C69.2363 20.3823 69.0007 21.1231 68.6404 21.8561C68.4291 22.2205 68.2178 22.585 67.9442 22.9455C65.4814 26.1897 59.7797 28.2184 53.359 27.807C46.9384 27.3957 41.5444 24.6562 39.519 21.1244C39.4607 21.0577 39.4647 20.9949 39.4064 20.9282C39.2397 20.6025 39.0729 20.2768 38.9685 19.9551C38.7054 19.1822 38.567 18.4174 38.6196 17.6018C38.9476 12.5198 46.0718 8.8182 54.5495 9.36133C54.7365 9.37331 54.9859 9.38929 55.1729 9.40127C63.3267 10.1126 69.6088 14.6101 69.2889 19.5666Z" fill="#A15D35" stroke="#E89465" stroke-width="0.398412" stroke-miterlimit="10" stroke-linecap="round" stroke-linejoin="round"/>
<path d="M76.7371 40.8967C76.7047 41.3986 76.5477 41.8926 76.3323 42.3198C76.1914 42.5627 76.0546 42.743 75.9138 42.9859C74.3424 45.0273 70.8167 46.3134 66.7648 46.0538C62.713 45.7942 59.3817 44.0688 58.0856 41.8438C58.0897 41.781 58.0274 41.7771 58.0314 41.7143C57.9189 41.5181 57.8064 41.3219 57.7562 41.1297C57.5975 40.6785 57.5052 40.1686 57.5376 39.6667C57.7441 36.4669 62.2113 34.1701 67.5099 34.5095C67.6346 34.5175 67.7592 34.5255 67.8839 34.5335C73.0497 34.9905 76.9396 37.7597 76.7371 40.8967Z" fill="#A15D35" stroke="#E89465" stroke-width="0.398412" stroke-miterlimit="10" stroke-linecap="round" stroke-linejoin="round"/>
<path d="M86.4083 20.0353C81.6376 17.3357 75.4453 19.2069 75.4453 19.2069C75.4453 19.2069 79.5247 16.1293 74.6917 13.4256C69.921 10.726 53.3322 17.5383 65.1694 24.2186C77.0649 30.9657 91.179 22.7349 86.4083 20.0353Z" fill="#FFFAF4" stroke="#E89465" stroke-width="0.398412" stroke-miterlimit="10" stroke-linecap="round" stroke-linejoin="round"/>
<path d="M77.869 30.1332C68.6911 25.8912 60.619 26.8231 59.2897 27.0529C59.7706 26.3907 62.1653 22.2602 54.7976 17.1261C53.4789 16.2227 51.1101 16.0709 49.6861 16.7987C45.5387 18.99 39.2062 24.0023 51.2806 30.8868L51.3429 30.8908C51.3429 30.8908 51.4053 30.8948 51.4012 30.9576C63.6044 37.7874 73.6219 34.8382 78.0689 32.855C79.5512 32.194 79.4492 30.8645 77.869 30.1332Z" fill="#FFFAF4" stroke="#E89465" stroke-width="0.398412" stroke-miterlimit="10" stroke-linecap="round" stroke-linejoin="round"/>
<path d="M68.1404 39.2761C55.9429 33.3287 46.9057 33.6947 45.4558 33.8538C45.7578 33.0542 47.1876 28.3578 36.8626 21.5223C35.0614 20.3359 32.1478 19.8972 30.782 20.6917C27.1535 22.6013 22.424 27.0233 32.2762 34.3955C32.634 34.6704 32.9918 34.9453 33.412 35.2242C35.6593 37.2582 34.0717 39.5505 34.0717 39.5505C34.0717 39.5505 38.8116 38.8462 42.5331 40.3446C42.7744 40.4861 43.082 40.5688 43.3233 40.7102C43.4439 40.781 43.5686 40.7889 43.6892 40.8597C56.846 46.4906 65.4978 44.3359 69.3635 42.6305C70.7916 41.84 70.2654 40.2943 68.1404 39.2761Z" fill="#FFFAF4" stroke="#E89465" stroke-width="0.398412" stroke-miterlimit="10" stroke-linecap="round" stroke-linejoin="round"/>
</g>
<g filter="url(#filter1_d_1571_943)">
<path d="M167.85 76.3817C167.85 76.3817 159.496 114.864 149.265 129.053C149.211 129.147 149.156 129.242 149.105 129.287C148.626 129.94 148.102 130.541 147.629 131.097C142.469 136.626 132.687 140.102 121.606 139.636C121.22 139.611 120.785 139.583 120.35 139.555C112.426 139.048 105.304 136.638 100.148 133.085C97.7777 131.468 95.8582 129.636 94.3861 127.637C93.9406 127.023 93.5497 126.314 93.1136 125.554C93.0684 125.502 93.0263 125.402 92.9812 125.35C88.8649 117.712 85.9529 104.195 84.0845 92.5503C82.1803 80.7086 81.3164 70.7891 81.3164 70.7891L167.854 76.3331L167.85 76.3817Z" fill="#F5E4D7" stroke="#E89465" stroke-width="0.308817" stroke-miterlimit="10" stroke-linecap="round" stroke-linejoin="round"/>
<path d="M93.1562 125.652C93.5923 126.413 93.9864 127.073 94.4288 127.736C93.9381 127.07 93.4989 126.358 93.1562 125.652Z" fill="#FFFAF4" stroke="#E89465" stroke-width="0.308817" stroke-miterlimit="10" stroke-linecap="round" stroke-linejoin="round"/>
<path d="M149.103 129.337C148.676 129.944 148.152 130.545 147.628 131.147C148.1 130.591 148.624 129.99 149.103 129.337Z" fill="#FFFAF4" stroke="#E89465" stroke-width="0.308817" stroke-miterlimit="10" stroke-linecap="round" stroke-linejoin="round"/>
<path d="M167.851 76.3819C167.851 76.3819 159.497 114.864 149.265 129.053C149.211 129.148 149.156 129.242 149.105 129.287C148.626 129.94 148.102 130.542 147.629 131.097C144.45 134.507 139.526 137.122 133.612 138.55C129.179 139.584 125.547 134.957 127.702 130.895C135.776 115.542 137.701 93.9834 137.701 93.9834C137.701 93.9834 126.834 91.7245 130.276 81.9832C131.706 77.8752 133.245 75.8252 135.239 74.2438L167.854 76.3333L167.851 76.3819Z" fill="#DCCBBF" stroke="#E89465" stroke-width="0.308817" stroke-miterlimit="10" stroke-linecap="round" stroke-linejoin="round"/>
<path d="M167.908 75.5072C166.986 89.8048 148.638 100.447 126.295 100.09C125.18 100.067 124.066 100.045 122.906 99.9703C104.642 98.8002 89.4936 90.7002 83.8137 80.228C82.0335 76.9886 81.1902 73.5163 81.4194 69.9662C82.3076 56.2035 99.2253 45.9094 120.363 45.4079C122.356 45.3403 124.341 45.4186 126.418 45.5517C139.174 46.3689 150.403 50.5554 157.969 56.6071C164.568 61.8642 168.36 68.5043 167.908 75.5072Z" fill="#FFFAF4" stroke="#E89465" stroke-width="0.308817" stroke-miterlimit="10" stroke-linecap="round" stroke-linejoin="round"/>
<path d="M167.907 75.5068C167.044 88.8805 151.011 98.9871 130.712 100.031C127.743 100.182 124.807 99.0663 122.764 96.8845C118.357 92.256 115.99 86.8305 116.354 81.1892C117.217 67.8156 133.25 57.7089 153.549 56.6654C156.518 56.5138 159.454 57.6298 161.497 59.8116C165.904 64.44 168.271 69.8656 167.907 75.5068Z" fill="#F5E4D7" stroke="#E89465" stroke-width="0.308817" stroke-miterlimit="10" stroke-linecap="round" stroke-linejoin="round"/>
<path d="M159.113 74.9445C159.01 76.5493 158.616 78.1356 157.987 79.6091C155.184 86.2172 147.43 91.3362 137.397 93.4281C133.019 94.3684 128.24 94.7458 123.263 94.427C109.927 93.5726 98.6867 88.0669 93.434 80.7474C92.1879 79.0072 91.2862 77.1915 90.7773 75.3033C90.3431 73.7616 90.1536 72.1869 90.2603 70.5334C90.8222 61.8284 99.4229 54.8592 111.435 52.1616C115.917 51.1303 120.892 50.7165 126.111 51.0508C131.667 51.4068 136.832 52.5679 141.377 54.324C152.402 58.644 159.659 66.4826 159.113 74.9445Z" fill="#F5E4D7" stroke="#E89465" stroke-width="0.308817" stroke-miterlimit="10" stroke-linecap="round" stroke-linejoin="round"/>
<path d="M114.609 62.3749C114.505 63.9798 114.112 65.566 113.483 67.0396C111.25 72.3169 105.779 76.6543 98.5752 79.2693C95.3466 80.4297 91.7234 78.6838 90.771 75.3998L90.7741 75.3512C90.3399 73.8096 90.1504 72.2348 90.2571 70.5813C90.7342 63.1893 97.0495 57.0504 106.239 53.7326C109.519 52.5265 113.139 54.3211 114.086 57.7023C114.526 59.1467 114.712 60.7701 114.609 62.3749Z" fill="#DCCBBF" stroke="#E89465" stroke-width="0.308817" stroke-miterlimit="10" stroke-linecap="round" stroke-linejoin="round"/>
<path d="M159.115 74.9407C159.011 76.5455 158.618 78.1318 157.989 79.6053C155.185 86.2134 147.431 91.3324 137.399 93.4243C128.452 89.97 121.984 84.1841 120.179 77.5737C119.745 76.0321 119.555 74.4573 119.662 72.8038C120.136 65.4605 126.355 59.3153 135.545 55.9975C139.224 54.6217 143.376 54.9366 146.79 56.9133C154.702 61.3756 159.567 67.9378 159.115 74.9407Z" fill="#FFFAF4" stroke="#E89465" stroke-width="0.308817" stroke-miterlimit="10" stroke-linecap="round" stroke-linejoin="round"/>
<path d="M155.463 74.3683C157.639 77.4865 157.366 81.7174 154.81 84.4836C148.702 91.173 136.744 95.2901 123.311 94.4296C109.879 93.569 98.5481 87.9599 93.35 80.5461C91.1739 77.4279 91.4438 73.2456 94.0028 70.4308C100.111 63.7414 112.07 59.6243 125.502 60.4848C138.886 61.3423 150.217 66.9515 155.463 74.3683Z" fill="#D17945" stroke="#E89465" stroke-width="0.308817" stroke-miterlimit="10" stroke-linecap="round" stroke-linejoin="round"/>
<path d="M148.468 77.5319C150.156 79.9352 149.943 83.2421 147.959 85.4102C143.159 90.6207 133.831 93.8321 123.346 93.1603C112.861 92.4886 104.022 88.1134 99.9312 82.3332C98.2427 79.9299 98.4561 76.623 100.44 74.455C105.24 69.2444 114.568 66.0331 125.053 66.7048C135.538 67.3765 144.38 71.7031 148.468 77.5319Z" fill="#E8A56C" stroke="#E89465" stroke-width="0.308817" stroke-miterlimit="10" stroke-linecap="round" stroke-linejoin="round"/>
<path d="M99.5013 127.331C99.8432 129.551 97.0884 130.888 95.5944 129.23C95.1394 128.761 94.736 128.247 94.3808 127.736C93.9353 127.121 93.5444 126.413 93.1083 125.652C93.0631 125.6 93.0211 125.5 92.9759 125.448C90.0776 119.989 87.7604 111.539 85.9904 102.88C85.474 100.356 88.8569 99.059 90.1231 101.24C93.8862 107.585 97.8273 116.432 99.5013 127.331Z" fill="#FFFAF4" stroke="#E89465" stroke-width="0.308817" stroke-miterlimit="10" stroke-linecap="round" stroke-linejoin="round"/>
<path d="M145.486 72.6063C142.217 70.6389 137.907 72.023 137.907 72.023C137.907 72.023 140.721 69.7617 137.403 67.7912C134.134 65.8238 122.654 70.8017 130.782 75.6685C139.006 80.5415 148.759 74.5251 145.486 72.6063Z" fill="#FFFAF4" stroke="#E89465" stroke-width="0.308817" stroke-miterlimit="10" stroke-linecap="round" stroke-linejoin="round"/>
<path d="M139.529 79.9392C133.179 76.8465 127.65 77.5666 126.716 77.751C127.041 77.2346 128.74 74.2182 123.641 70.5221C122.761 69.8797 121.07 69.7713 120.114 70.2961C117.247 71.8704 112.837 75.5433 121.149 80.5684L121.197 80.5715L121.246 80.5746C129.66 85.5086 136.591 83.3645 139.645 81.8999C140.695 81.43 140.609 80.4967 139.529 79.9392Z" fill="#FFFAF4" stroke="#E89465" stroke-width="0.308817" stroke-miterlimit="10" stroke-linecap="round" stroke-linejoin="round"/>
<path d="M132.793 86.5876C124.386 82.2888 118.154 82.6221 117.13 82.703C117.361 82.1318 118.357 78.7285 111.205 73.7777C109.95 72.916 107.979 72.6432 107.023 73.168C104.507 74.5694 101.195 77.7755 108.032 83.0967C108.261 83.3067 108.541 83.4712 108.819 83.6843C110.374 85.1512 109.246 86.837 109.246 86.837C109.246 86.837 112.53 86.3149 115.08 87.406C115.267 87.5157 115.457 87.5767 115.599 87.6346C115.692 87.6895 115.741 87.6925 115.834 87.7474C124.885 91.8432 130.86 90.2238 133.56 88.9807C134.613 88.4621 134.247 87.3644 132.793 86.5876Z" fill="#FFFAF4" stroke="#E89465" stroke-width="0.308817" stroke-miterlimit="10" stroke-linecap="round" stroke-linejoin="round"/>
<path d="M167.198 110.57C164.574 124.173 156.141 127.784 150.648 132.461C149.828 133.141 149.053 133.873 148.371 134.659C146.954 136.327 144.189 135.563 143.844 133.393C143.769 133.046 143.749 132.605 143.729 132.165C143.349 126.769 150.716 123.139 150.716 123.139C150.716 123.139 160.86 116.317 160.307 107.59C159.923 101.51 154.868 102.407 152.944 102.137C152.223 102.042 151.615 102.442 151.284 103.056C150.892 103.861 149.947 104.973 147.394 105.444C146.902 105.559 146.415 105.576 146.029 105.552C143.123 105.463 142.939 103.059 142.939 103.059C142.939 103.059 142.143 97.3431 147.83 94.924C151.622 93.3112 160.463 93.1452 164.929 98.3634C167.185 100.998 168.293 104.878 167.198 110.57Z" fill="#FFFAF4" stroke="#E89465" stroke-width="0.308817" stroke-miterlimit="10" stroke-linecap="round" stroke-linejoin="round"/>
<path d="M160.306 107.591C159.922 101.511 154.867 102.408 152.943 102.138C152.222 102.043 151.614 102.444 151.283 103.058C150.891 103.863 149.946 104.974 147.393 105.445C146.707 105.548 146.165 104.927 146.354 104.256C146.856 102.481 148.214 99.4915 151.525 99.3129C156.204 98.9779 159.754 99.596 160.306 107.591Z" fill="#F5E4D7" stroke="#E89465" stroke-width="0.308817" stroke-miterlimit="10" stroke-linecap="round" stroke-linejoin="round"/>
<path d="M167.197 110.573C165.648 118.776 161.959 123.325 158.054 126.688C156.359 128.142 154.03 125.893 155.405 124.126C159.005 119.473 163.615 114.202 164.939 110.966C165.635 109.204 165.99 107.468 166.045 105.861C166.111 104.839 167.564 104.884 167.598 105.862C167.7 107.285 167.551 108.838 167.197 110.573Z" fill="#F5E4D7" stroke="#E89465" stroke-width="0.308817" stroke-miterlimit="10" stroke-linecap="round" stroke-linejoin="round"/>
</g>
<defs>
<filter id="filter0_d_1571_943" x="-3.92064" y="0.273438" width="117.148" height="146.228" filterUnits="userSpaceOnUse" color-interpolation-filters="sRGB">
<feFlood flood-opacity="0" result="BackgroundImageFix"/>
<feColorMatrix in="SourceAlpha" type="matrix" values="0 0 0 0 0 0 0 0 0 0 0 0 0 0 0 0 0 0 127 0" result="hardAlpha"/>
<feOffset dy="4.54759"/>
<feGaussianBlur stdDeviation="2.27379"/>
<feComposite in2="hardAlpha" operator="out"/>
<feColorMatrix type="matrix" values="0 0 0 0 0 0 0 0 0 0 0 0 0 0 0 0 0 0 0.25 0"/>
<feBlend mode="normal" in2="BackgroundImageFix" result="effect1_dropShadow_1571_943"/>
<feBlend mode="normal" in="SourceGraphic" in2="effect1_dropShadow_1571_943" result="shape"/>
</filter>
<filter id="filter1_d_1571_943" x="72.511" y="42.7773" width="103.46" height="108.755" filterUnits="userSpaceOnUse" color-interpolation-filters="sRGB">
<feFlood flood-opacity="0" result="BackgroundImageFix"/>
<feColorMatrix in="SourceAlpha" type="matrix" values="0 0 0 0 0 0 0 0 0 0 0 0 0 0 0 0 0 0 127 0" result="hardAlpha"/>
<feOffset dy="4.54759"/>
<feGaussianBlur stdDeviation="2.27379"/>
<feComposite in2="hardAlpha" operator="out"/>
<feColorMatrix type="matrix" values="0 0 0 0 0 0 0 0 0 0 0 0 0 0 0 0 0 0 0.25 0"/>
<feBlend mode="normal" in2="BackgroundImageFix" result="effect1_dropShadow_1571_943"/>
<feBlend mode="normal" in="SourceGraphic" in2="effect1_dropShadow_1571_943" result="shape"/>
</filter>
</defs>
</svg>
