<svg width="64" height="37" viewBox="0 0 64 37" fill="none" xmlns="http://www.w3.org/2000/svg">
<path d="M61.169 8.88045C58.3746 3.66245 52.9069 0.413693 46.9609 0.433685H1.97293C1.66912 0.434928 1.37238 0.526201 1.1197 0.696132C0.867014 0.866062 0.669556 1.10714 0.551926 1.38932C0.436015 1.66969 0.405827 1.97854 0.465228 2.2763C0.524628 2.57406 0.670913 2.84718 0.885347 3.06068L10.6855 12.8569C11.5508 13.7246 12.7297 14.2104 13.9562 14.2104H45.6709C47.9314 14.1864 49.7791 15.9897 49.8029 18.2349C49.8267 20.48 48.0148 22.3193 45.7543 22.3413H23.8894C23.5853 22.3414 23.2881 22.4317 23.0347 22.601C22.7812 22.7702 22.5829 23.0109 22.4644 23.2929C22.3474 23.5736 22.3164 23.8832 22.3755 24.1817C22.4346 24.4803 22.581 24.7542 22.7959 24.9683L32.602 34.7725C33.4727 35.6398 34.6482 36.1255 35.8727 36.124H45.7622C58.6287 36.124 68.3574 22.4493 61.169 8.87446" fill="#FF3008"/>
</svg>
