<svg width="44" height="25" viewBox="0 0 44 25" fill="none" xmlns="http://www.w3.org/2000/svg">
<path d="M41.5121 6.07711C39.611 2.54018 35.8911 0.338073 31.8459 0.351625H1.23929C1.03259 0.352467 0.830714 0.414334 0.658807 0.529519C0.486899 0.644704 0.352562 0.808112 0.272535 0.999384C0.193678 1.18943 0.17314 1.39877 0.213552 1.60061C0.253964 1.80244 0.353486 1.98757 0.499371 2.13229L7.16672 8.7725C7.75541 9.36063 8.55744 9.68993 9.39187 9.68993H30.9683C32.5062 9.67367 33.7632 10.896 33.7794 12.4178C33.7956 13.9397 32.5629 15.1864 31.025 15.2013H16.1497C15.9428 15.2014 15.7406 15.2626 15.5682 15.3773C15.3958 15.492 15.2608 15.6552 15.1802 15.8464C15.1006 16.0366 15.0795 16.2464 15.1197 16.4488C15.1599 16.6512 15.2595 16.8369 15.4057 16.982L22.0771 23.6276C22.6695 24.2154 23.4692 24.5447 24.3023 24.5437H31.0304C39.7838 24.5437 46.4025 15.2745 41.5121 6.07305" fill="#FF3008"/>
</svg>
