<svg width="167" height="152" viewBox="0 0 167 152" fill="none" xmlns="http://www.w3.org/2000/svg">
<g filter="url(#filter0_d_1571_909)">
<path d="M75.8749 33.9256L84.2457 30.255C86.8984 29.0896 89.9349 30.0884 91.4288 32.5667L106.884 58.2561C108.148 60.3716 107.586 63.1832 105.517 64.536L103.507 65.8896C102.029 66.8902 100.041 66.4447 99.0626 64.9327L85.7832 43.4697L78.8905 46.1398L75.8749 33.9256Z" fill="#9D4F34" stroke="#E89465" stroke-width="0.405431" stroke-miterlimit="10" stroke-linecap="round" stroke-linejoin="round"/>
<path d="M51.9193 122.443C76.0069 122.753 95.6614 112.642 95.8188 99.8576C95.9763 87.0737 76.5771 76.4585 52.4895 76.1481C28.4019 75.8376 8.74736 85.9494 8.5899 98.7334C8.43245 111.517 27.8317 122.132 51.9193 122.443Z" fill="#9D4F34" stroke="#E89465" stroke-width="0.405431" stroke-miterlimit="10" stroke-linecap="round" stroke-linejoin="round"/>
<path d="M100.836 78.2112C100.554 101.119 81.8195 113.173 57.8827 114.424C56.1812 114.522 54.4218 114.559 52.6632 114.536C26.2834 114.196 5.0981 101.508 5.40018 76.9812C5.70227 52.4545 27.4359 25.3851 53.757 25.7244C63.3709 25.8483 72.295 29.6219 79.7269 35.5355C92.6168 45.7777 101.028 62.6197 100.836 78.2112Z" fill="#EDD2C2" stroke="#E89465" stroke-width="0.405431" stroke-miterlimit="10" stroke-linecap="round" stroke-linejoin="round"/>
<path d="M92.8785 76.8497C92.6407 96.1592 76.6279 106.209 56.3316 107.027C55.1584 107.072 53.9852 107.117 52.8128 107.101C30.8883 106.819 13.1944 96.2748 13.4463 75.8259C13.4648 74.3267 13.6005 72.829 13.7948 71.3321C20.3772 79.5738 35.4314 85.4657 52.9592 85.6916C53.9558 85.7044 54.9524 85.7173 56.0083 85.6709C72.3711 85.282 86.3331 79.8841 92.643 72.1684C92.7997 73.7298 92.8977 75.2905 92.8785 76.8497Z" fill="#9D4F34" stroke="#E89465" stroke-width="0.405431" stroke-miterlimit="10" stroke-linecap="round" stroke-linejoin="round"/>
<path d="M100.834 78.2101C100.587 98.2992 86.1363 110.048 66.3936 113.512C61.399 114.408 56.6942 110.808 55.9363 105.701C54.2645 93.8636 55.6061 80.1462 60.4642 66.5341C63.6219 57.6982 67.9408 49.7769 72.9478 43.124C76.4641 38.4911 83.21 38.2182 87.0251 42.6457C95.7551 52.6544 100.987 65.7968 100.834 78.2101Z" fill="#D6B7A6" stroke="#E89465" stroke-width="0.405431" stroke-miterlimit="10" stroke-linecap="round" stroke-linejoin="round"/>
<path d="M92.8303 71.1518C92.7277 79.4873 76.406 86.0543 55.8811 86.3896C54.9431 86.3775 54.0631 86.4261 53.1251 86.414C31.3179 86.133 13.7006 78.8886 13.8077 70.1933C13.9148 61.498 31.647 54.6493 53.4543 54.9304C57.5578 54.9832 61.4238 55.273 65.1111 55.8003C81.267 57.9278 92.9175 64.0757 92.8303 71.1518Z" fill="#29150D" stroke="#E89465" stroke-width="0.405431" stroke-miterlimit="10" stroke-linecap="round" stroke-linejoin="round"/>
<path d="M92.878 76.8491C92.6402 96.1586 76.6275 106.208 56.3311 107.026C56.219 106.605 56.1077 106.124 56.0542 105.703C55.1931 99.4545 55.1593 92.6767 56.0078 85.6703C72.3706 85.2814 86.3326 79.8835 92.6425 72.1678C92.7992 73.7292 92.8972 75.2899 92.878 76.8491Z" fill="#29150D" stroke="#E89465" stroke-width="0.405431" stroke-miterlimit="10" stroke-linecap="round" stroke-linejoin="round"/>
<path d="M92.8308 71.1492C92.7282 79.4847 76.4065 86.0517 55.8816 86.3869C56.6648 79.9195 58.1545 73.2213 60.582 66.5352C61.9182 62.7738 63.4867 59.1954 65.1703 55.7984C81.2675 57.9252 92.918 64.073 92.8308 71.1492Z" fill="#73421E" stroke="#E89465" stroke-width="0.405431" stroke-miterlimit="10" stroke-linecap="round" stroke-linejoin="round"/>
<path d="M88.2413 43.9192C86.0689 48.9292 81.4263 54.5672 71.4786 57.7377C66.3579 59.3511 59.8376 60.3466 51.5719 60.2401C35.2165 60.0293 22.3668 51.287 18.5332 48.3587C17.8357 47.8699 17.4884 47.5055 17.3718 47.444C15.573 45.9214 15.3132 43.2191 16.8016 41.379C18.2901 39.5389 20.9317 39.2731 22.7305 40.7957C22.7884 40.8564 25.8643 43.4151 30.8748 45.9987C30.9913 46.0602 31.1078 46.1217 31.1656 46.1824C31.2235 46.2431 31.3408 46.2446 31.3987 46.3053C36.5842 48.9512 43.6471 51.5013 51.6197 51.604C67.0958 51.8035 77.2875 47.8564 80.4274 40.4597C81.3341 38.2523 83.8674 37.2653 85.9659 38.252C88.1825 39.1802 89.2066 41.7124 88.2413 43.9192Z" fill="#29150D" stroke="#E89465" stroke-width="0.405431" stroke-miterlimit="10" stroke-linecap="round" stroke-linejoin="round"/>
<path d="M88.1807 44.0996C86.3703 48.2747 82.7961 52.8468 75.8382 56.0559C73.1847 57.2812 70.2462 57.8431 67.3144 57.8653C66.9041 57.86 66.4351 57.854 66.0247 57.8487C50.6073 57.65 37.2405 52.7995 30.8756 45.9401C30.9921 46.0015 31.1086 46.063 31.1665 46.1237C36.3521 48.7696 43.5308 51.4411 51.6205 51.5454C67.0966 51.7448 77.2884 47.7978 80.4283 40.4011C81.3943 38.1344 84.1042 37.0898 86.3171 38.3178C88.3555 39.4237 89.0858 42.0121 88.1807 44.0996Z" fill="#9D4F34" stroke="#E89465" stroke-width="0.405431" stroke-miterlimit="10" stroke-linecap="round" stroke-linejoin="round"/>
<path d="M31.4569 46.2478C28.2736 47.6462 24.3349 48.4951 20.1141 48.4407C20.0555 48.4399 19.9969 48.4392 19.8796 48.4377C18.9417 48.4256 18.0668 48.0544 17.3707 47.4457C15.5719 45.9231 15.3121 43.2208 16.8005 41.3807C18.2889 39.5406 20.9306 39.2747 22.7294 40.7974C22.7873 40.8581 25.8632 43.4168 30.8736 46.0004C30.9901 46.0618 31.1066 46.1233 31.1645 46.184C31.2818 46.1855 31.3404 46.1863 31.4569 46.2478Z" fill="#73421E" stroke="#E89465" stroke-width="0.405431" stroke-miterlimit="10" stroke-linecap="round" stroke-linejoin="round"/>
<path d="M61.3438 23.6611L14.2707 23.0544L19.7127 33.4406L11.7017 36.4561C12.1685 36.6421 27.9353 46.5616 27.9353 46.5616C33.3384 50.5897 42.6853 53.3491 53.3544 53.4867C54.9372 53.5071 56.4621 53.4667 57.9291 53.3657C71.3653 52.5792 80.5738 47.5399 83.8844 40.5652L92.6477 24.0646L61.3438 23.6611Z" fill="#D6B7A6" stroke="#E89465" stroke-width="0.405431" stroke-miterlimit="10" stroke-linecap="round" stroke-linejoin="round"/>
<path d="M92.7068 24.0662L83.9435 40.5668C81.2962 46.0506 74.969 50.4073 65.7403 52.3276C61.8609 53.1173 58.3836 49.8337 58.8434 45.8212L61.3443 23.6619L92.7068 24.0662Z" fill="#C59A82" stroke="#E89465" stroke-width="0.405431" stroke-miterlimit="10" stroke-linecap="round" stroke-linejoin="round"/>
<path d="M53.7654 1.19224C31.7237 0.90815 13.7986 9.13385 13.6708 19.5082C13.656 20.7076 13.8765 21.85 14.3314 22.9954C14.8992 24.5022 14.7019 26.2389 13.9221 27.6683L10.8652 33.0868C9.90579 34.8138 11.2869 36.9308 13.2251 36.6559L23.0934 35.1637C26.1484 34.6633 29.3118 34.884 32.2911 35.7621C38.3656 37.6397 45.6214 38.8128 53.3594 38.9125C75.4011 39.1966 93.3262 30.9709 93.454 20.5965C93.5818 10.2221 75.8071 1.47632 53.7654 1.19224Z" fill="#EDD2C2" stroke="#E89465" stroke-width="0.405431" stroke-miterlimit="10" stroke-linecap="round" stroke-linejoin="round"/>
<path d="M53.4112 6.16671C35.4144 5.93476 20.7327 12.6429 20.6278 21.1583C20.616 22.1178 20.78 23.0795 21.1207 23.9835C21.5741 25.2489 21.4399 26.6266 20.7803 27.8177L18.2635 32.2235C17.4837 33.6529 18.6355 35.3471 20.2212 35.1277L28.2686 33.9119C30.7945 33.5246 33.3724 33.6778 35.8256 34.4291C40.79 35.9925 46.7004 36.9084 53.0315 36.99C71.0284 37.2219 85.7101 30.5138 85.815 21.9984C85.9199 13.4831 71.4666 6.39942 53.4112 6.16671Z" fill="#C59A82" stroke="#E89465" stroke-width="0.405431" stroke-miterlimit="10" stroke-linecap="round" stroke-linejoin="round"/>
<path d="M20.1318 80.3502C20.9067 84.0788 22.7235 88.9004 26.8361 92.9718C28.6899 94.795 31.7604 93.0353 31.2645 90.4499C30.5504 86.5422 28.7366 81.4807 24.4444 77.7069C22.5306 76.0028 19.6352 77.8248 20.1318 80.3502Z" fill="#EDD2C2" stroke="#E89465" stroke-width="0.405431" stroke-miterlimit="10" stroke-linecap="round" stroke-linejoin="round"/>
</g>
<g filter="url(#filter1_d_1571_909)">
<path d="M91.5026 71.2228L94.1403 92.5997C94.3375 94.1651 94.8413 95.6465 95.6971 96.9109C96.3808 97.9939 96.8876 99.2522 97.0884 100.55L100.817 121.946C100.784 124.4 101.363 126.775 102.512 128.937C105.361 134.52 111.631 138.824 119.333 140.387C120.943 140.727 122.599 140.935 124.299 141.009C124.605 141.014 124.867 141.019 125.172 141.024C125.739 141.034 126.263 141.043 126.787 141.008C128.315 140.945 129.8 140.792 131.244 140.55C133.737 140.103 136.059 139.384 138.166 138.439C138.298 138.352 138.473 138.311 138.606 138.224C142.865 136.246 146.221 133.27 148.144 129.733C148.726 128.672 149.177 127.564 149.498 126.41C149.819 125.255 150.009 124.054 150.026 122.804L154.325 101.549C154.56 100.259 155.1 99.0631 155.813 97.9599C156.659 96.6805 157.246 95.2181 157.484 93.705L160.692 72.4301L152.535 72.2432L126.1 71.6034L117.898 71.5049L91.5026 71.2228Z" fill="#9E887F" stroke="#E89465" stroke-width="0.301687" stroke-miterlimit="10" stroke-linecap="round" stroke-linejoin="round"/>
<path d="M140.034 129.236C139.286 132.972 143.88 135.328 146.318 132.47C147.028 131.59 147.694 130.709 148.187 129.736C148.769 128.675 149.22 127.567 149.541 126.412C149.817 125.346 150.006 124.234 150.021 123.119C150.024 122.895 150.07 122.718 150.073 122.539L154.28 101.594C154.515 100.304 155.055 99.1087 155.768 98.0055C156.614 96.7261 157.201 95.2638 157.439 93.7507L160.024 76.6597C160.359 74.4342 158.728 72.4423 156.504 72.3588L154.846 72.3299C153.406 72.3048 152.086 73.1296 151.501 74.4582L150.826 75.9637C150.692 76.2291 150.601 76.4952 150.554 76.7622L140.034 129.236Z" fill="#B8AAA0" stroke="#E89465" stroke-width="0.301687" stroke-miterlimit="10" stroke-linecap="round" stroke-linejoin="round"/>
<path d="M91.5011 71.2249L94.1388 92.6019C94.336 94.1672 94.8398 95.6486 95.6956 96.913C96.3793 97.996 96.8861 99.2543 97.0869 100.552L100.815 121.948C100.782 124.402 101.362 126.777 102.511 128.939C104.849 133.532 109.513 137.228 115.376 139.293C119.632 140.796 124 137.213 123.581 132.609L117.984 71.5086L91.5011 71.2249Z" fill="#796159" stroke="#E89465" stroke-width="0.301687" stroke-miterlimit="10" stroke-linecap="round" stroke-linejoin="round"/>
<path d="M96.345 71.266L98.63 89.6469C98.7866 90.9884 99.2498 92.246 99.9765 93.3743C100.318 93.9158 100.573 94.4557 100.783 95.0395C100.952 95.4887 101.076 95.9817 101.157 96.474L104.358 114.871C104.33 116.968 104.87 119.03 105.805 120.876C108.187 125.469 113.244 129.083 119.508 130.531C121.335 130.964 123.295 131.222 125.302 131.257C134.202 131.412 141.891 127.396 145.111 121.562C146.139 119.75 146.69 117.707 146.718 115.61L150.41 97.3334C150.504 96.8442 150.641 96.3557 150.821 95.9126C151.047 95.3364 151.317 94.761 151.673 94.2317C152.43 93.1293 152.883 91.8877 153.119 90.553L155.894 72.2605L126.144 71.5629L107.514 71.3717L96.345 71.266Z" fill="#73421E" stroke="#E89465" stroke-width="0.301687" stroke-miterlimit="10" stroke-linecap="round" stroke-linejoin="round"/>
<path d="M96.3455 71.2643L98.6294 89.7343C98.786 91.0758 99.2927 92.3342 99.9758 93.4617C99.9758 93.4617 99.9758 93.4617 99.9752 93.5064C100.658 94.6339 101.561 95.676 102.686 96.3651C106.624 98.7989 111.225 100.62 116.316 101.69C119.319 102.323 122.412 102.689 125.64 102.745C134.234 102.895 142.16 100.847 148.447 97.342C149.633 96.6934 150.693 95.7747 151.406 94.6269C151.496 94.4946 151.585 94.3623 151.674 94.2299C152.43 93.1721 152.839 91.9298 153.031 90.639L155.806 72.3464L126.056 71.6488L107.426 71.4576L96.3455 71.2643Z" fill="#A15D35" stroke="#E89465" stroke-width="0.301687" stroke-miterlimit="10" stroke-linecap="round" stroke-linejoin="round"/>
<path d="M96.3454 71.2624L98.6292 89.7324C98.7858 91.0739 99.2926 92.3323 99.9757 93.4598C100.275 93.9559 100.529 94.4959 100.739 95.0797C100.908 95.5289 101.032 96.0219 101.113 96.5142L104.314 114.911C104.286 117.008 104.826 119.07 105.761 120.916C107.207 123.708 109.618 126.16 112.736 127.955C115.594 129.611 119.117 127.218 118.725 123.864L113.512 76.4261L107.427 71.4111L96.3454 71.2624Z" fill="#29150D" stroke="#E89465" stroke-width="0.301687" stroke-miterlimit="10" stroke-linecap="round" stroke-linejoin="round"/>
<path d="M96.3451 71.2633L98.629 89.7334C98.7856 91.0749 99.2924 92.3332 99.9754 93.4608C99.9754 93.4608 99.9754 93.4608 99.9748 93.5054C100.658 94.633 101.56 95.6751 102.686 96.3641C106.624 98.798 111.225 100.619 116.316 101.689L113.556 76.4278L107.47 71.4128L96.3451 71.2633Z" fill="#73421E" stroke="#E89465" stroke-width="0.301687" stroke-miterlimit="10" stroke-linecap="round" stroke-linejoin="round"/>
<path d="M91.2742 68.6765C91.1221 80.0533 105.569 89.5874 123.927 90.5325C124.581 90.5439 125.191 90.5992 125.846 90.6106C145.084 90.9463 160.83 81.6712 160.987 69.9375C161.144 58.1592 145.654 48.3837 126.415 48.048C108.398 47.7337 93.4535 55.8178 91.4774 66.538C91.3812 67.2057 91.2844 67.9181 91.2742 68.6765Z" fill="#FFFAF4" stroke="#E89465" stroke-width="0.301687" stroke-miterlimit="10" stroke-linecap="round" stroke-linejoin="round"/>
<path d="M91.2743 68.6774C91.1282 79.608 104.531 88.8562 121.878 90.3637C123.055 90.4735 124.114 89.5549 124.131 88.3503C124.131 88.3503 124.131 88.3503 124.131 88.3056C124.277 77.375 110.874 68.1268 93.5273 66.6193C92.3506 66.5095 91.2911 67.4281 91.2743 68.6774C91.2743 68.6774 91.2749 68.6327 91.2743 68.6774Z" fill="#D1C9C3"/>
<path d="M91.2743 68.6774C91.1282 79.608 104.531 88.8562 121.878 90.3637C123.055 90.4735 124.114 89.5549 124.131 88.3503C124.131 88.3503 124.131 88.3503 124.131 88.3056C124.277 77.375 110.874 68.1268 93.5273 66.6193C92.3506 66.5095 91.2911 67.4281 91.2743 68.6774ZM91.2743 68.6774C91.2749 68.6327 91.2743 68.6774 91.2743 68.6774Z" stroke="#E89465" stroke-width="0.301687" stroke-miterlimit="10" stroke-linecap="round" stroke-linejoin="round"/>
<path d="M97.1633 68.7778C97.1425 70.3393 97.4275 71.8615 98.0628 73.3006C98.3587 74.0198 98.7417 74.7405 99.1684 75.4619C103.357 82.0503 113.722 86.8276 125.937 87.0407C138.108 87.2531 148.596 82.8397 153.002 76.4013C153.091 76.269 153.136 76.1805 153.225 76.0482C153.582 75.4743 153.938 74.9004 154.165 74.2796C154.795 72.8625 155.164 71.3517 155.185 69.7902C155.316 60.0196 142.422 51.8513 126.411 51.5719C126.018 51.5651 125.626 51.5582 125.233 51.5514C109.741 51.6381 97.291 59.2302 97.1633 68.7778Z" fill="#796159" stroke="#E89465" stroke-width="0.301687" stroke-miterlimit="10" stroke-linecap="round" stroke-linejoin="round"/>
<path d="M123.23 57.8093C123.209 59.3708 123.494 60.8931 124.13 62.3322C124.425 63.0513 124.809 63.772 125.235 64.4935C129.423 71.0818 139.788 75.8591 152.004 76.0722C152.745 76.0852 153.449 75.6958 153.807 74.9881C153.941 74.7673 154.031 74.5457 154.122 74.2796C154.752 72.8625 155.121 71.3517 155.142 69.7902C155.273 60.0196 142.379 51.8513 126.368 51.5719C125.626 51.559 124.922 51.9929 124.565 52.6561C123.714 54.2477 123.255 55.9801 123.23 57.8093Z" fill="#B8AAA0" stroke="#E89465" stroke-width="0.301687" stroke-miterlimit="10" stroke-linecap="round" stroke-linejoin="round"/>
<path d="M99.1266 75.4169C102.418 80.5616 109.432 84.611 118.138 86.2355C120.619 86.6804 123.19 86.9484 125.895 86.9956C134.096 87.1387 141.541 85.1712 146.864 81.9172C149.459 80.356 151.536 78.4734 152.96 76.3562C152.96 76.3562 152.96 76.3562 152.961 76.3116C153.806 75.0768 153.828 73.4261 153.016 72.1624C148.829 65.5294 138.464 60.7522 126.205 60.5383C123.762 60.4956 121.404 60.633 119.131 60.9503C111.306 62.0187 104.676 65.0267 100.781 69.1536C100.162 69.8121 99.5849 70.5161 99.0954 71.2215C98.3371 72.4578 98.3144 74.1532 99.1266 75.4169Z" fill="#73421E" stroke="#E89465" stroke-width="0.301687" stroke-miterlimit="10" stroke-linecap="round" stroke-linejoin="round"/>
<path d="M99.1257 75.419C101.476 79.1193 105.755 82.2285 111.225 84.2874C113.656 85.2224 115.703 82.2236 113.985 80.1855C111.967 77.7405 109.555 75.3779 106.835 73.233C105.539 72.2287 104.286 71.3143 102.945 70.443C101.691 69.6179 99.9844 69.9451 99.1382 71.2245C98.3362 72.46 98.3136 74.1554 99.1257 75.419Z" fill="#A15D35" stroke="#E89465" stroke-width="0.301687" stroke-miterlimit="10" stroke-linecap="round" stroke-linejoin="round"/>
<path d="M126.161 60.539C122.671 60.4781 120.739 64.6392 122.927 67.4441C126.574 72.0595 132.189 76.3523 139 79.3272C139.781 79.6532 140.562 79.9792 141.3 80.2598C145.251 81.7567 149.674 80.5844 152.293 77.2386C152.515 76.9747 152.737 76.6662 152.916 76.357C152.961 76.2685 153.001 76.4923 153.094 72.8347C153.098 72.5223 153.016 72.1639 152.845 71.8932C148.567 65.4371 138.288 60.7506 126.204 60.5398C126.248 60.5405 126.204 60.5398 126.161 60.539Z" fill="#29150D" stroke="#E89465" stroke-width="0.301687" stroke-miterlimit="10" stroke-linecap="round" stroke-linejoin="round"/>
</g>
<defs>
<filter id="filter0_d_1571_909" x="-0.24163" y="0.582031" width="113.608" height="132.741" filterUnits="userSpaceOnUse" color-interpolation-filters="sRGB">
<feFlood flood-opacity="0" result="BackgroundImageFix"/>
<feColorMatrix in="SourceAlpha" type="matrix" values="0 0 0 0 0 0 0 0 0 0 0 0 0 0 0 0 0 0 127 0" result="hardAlpha"/>
<feOffset dy="5.08733"/>
<feGaussianBlur stdDeviation="2.54367"/>
<feComposite in2="hardAlpha" operator="out"/>
<feColorMatrix type="matrix" values="0 0 0 0 0 0 0 0 0 0 0 0 0 0 0 0 0 0 0.25 0"/>
<feBlend mode="normal" in2="BackgroundImageFix" result="effect1_dropShadow_1571_909"/>
<feBlend mode="normal" in="SourceGraphic" in2="effect1_dropShadow_1571_909" result="shape"/>
</filter>
<filter id="filter1_d_1571_909" x="85.2271" y="47.4414" width="81.1317" height="104.366" filterUnits="userSpaceOnUse" color-interpolation-filters="sRGB">
<feFlood flood-opacity="0" result="BackgroundImageFix"/>
<feColorMatrix in="SourceAlpha" type="matrix" values="0 0 0 0 0 0 0 0 0 0 0 0 0 0 0 0 0 0 127 0" result="hardAlpha"/>
<feOffset dy="5.08733"/>
<feGaussianBlur stdDeviation="2.54367"/>
<feComposite in2="hardAlpha" operator="out"/>
<feColorMatrix type="matrix" values="0 0 0 0 0 0 0 0 0 0 0 0 0 0 0 0 0 0 0.25 0"/>
<feBlend mode="normal" in2="BackgroundImageFix" result="effect1_dropShadow_1571_909"/>
<feBlend mode="normal" in="SourceGraphic" in2="effect1_dropShadow_1571_909" result="shape"/>
</filter>
</defs>
</svg>
