<svg width="44" height="36" viewBox="0 0 44 36" fill="none" xmlns="http://www.w3.org/2000/svg">
<path d="M0.845703 20.9158V35.0458H11.0263V32.6226H3.59635V29.1304H10.827V26.7993H3.59635V23.3338H11.0263V20.9141L0.845703 20.9158ZM26.7509 21.6426V24.6296H24.7048V27.0014H26.758V32.5729C26.758 33.9787 27.7757 35.0919 29.6047 35.0919H32.5279L32.5173 32.7201H30.4872C29.868 32.7201 29.4695 32.4542 29.4695 31.8975V26.9908H32.5155V24.6296H29.4802V21.6409L26.7509 21.6426ZM17.3264 24.3495C16.5949 24.3475 15.8704 24.4904 15.1948 24.7699C14.5192 25.0493 13.9061 25.4598 13.391 25.9773C12.876 26.4949 12.4694 27.1093 12.1947 27.7847C11.9201 28.4602 11.7829 29.1834 11.7911 29.9121C11.7994 30.6409 11.9529 31.3608 12.2428 32.0299C12.5327 32.6991 12.9531 33.3041 13.4797 33.81C14.0063 34.3158 14.6286 34.7124 15.3103 34.9766C15.9921 35.2408 16.7197 35.3673 17.451 35.3489C18.6888 35.3618 19.8924 34.9443 20.8546 34.1683V35.1114H23.5537V24.6296H20.8688V25.562C19.9067 24.7737 18.6985 24.3448 17.4528 24.3495H17.3282H17.3264ZM38.2694 24.3619C35.4494 24.3619 33.4656 25.5035 33.4656 27.7052C33.4656 29.2297 34.5562 30.2241 36.9101 30.7098L39.4864 31.2913C40.5005 31.4863 40.771 31.7504 40.771 32.1599C40.771 32.8176 39.9917 33.2288 38.7658 33.2288C37.2072 33.2288 36.3141 32.892 35.9671 31.7256H33.2396C33.6311 33.9077 35.2982 35.3596 38.6644 35.3596H38.668C41.7851 35.3596 43.5465 33.9077 43.5465 31.8975C43.5465 30.4688 42.5057 29.4016 40.328 28.9425L38.0257 28.4816C36.6895 28.2405 36.2678 27.9959 36.2678 27.5137C36.2678 26.8809 36.9101 26.4944 38.1004 26.4944C39.385 26.4944 40.328 26.8348 40.6002 27.9959H43.301C43.148 25.8173 41.5396 24.3619 38.2712 24.3619H38.2694ZM17.6894 26.5777C19.4864 26.5955 20.9258 28.0615 20.9044 29.8519C20.9049 30.275 20.821 30.6939 20.6575 31.0844C20.494 31.4748 20.2542 31.829 19.952 32.1262C19.6498 32.4235 19.2914 32.6579 18.8974 32.8158C18.5035 32.9738 18.082 33.0521 17.6574 33.0462C16.7967 33.042 15.9729 32.6973 15.3673 32.0879C14.7617 31.4786 14.4239 30.6545 14.4281 29.7969C14.4324 28.9394 14.7784 28.1186 15.39 27.5153C16.0016 26.9119 16.8287 26.5753 17.6894 26.5795V26.5777Z" fill="#5FB709"/>
<path d="M0.845703 0.376773V9.23482C0.845703 12.5728 3.21382 14.7833 6.33098 14.7833C7.04078 14.7939 7.74543 14.6617 8.40272 14.3946C9.06002 14.1274 9.65644 13.7309 10.1563 13.2286V14.5457H12.3127V0.375H10.1385V9.12137C10.1385 11.3638 8.59057 12.8794 6.58897 12.883C4.56246 12.8794 3.0359 11.4046 3.0359 9.12137V0.375L0.845703 0.376773ZM13.9442 0.376773V14.5457H16.0134V13.2481C16.5082 13.7411 17.0957 14.132 17.7424 14.3985C18.389 14.6649 19.082 14.8017 19.7817 14.801C20.5044 14.8195 21.2235 14.6936 21.8966 14.4308C22.5696 14.168 23.1831 13.7736 23.7008 13.2709C24.2185 12.7682 24.6299 12.1673 24.9108 11.5036C25.1917 10.84 25.3365 10.127 25.3365 9.40677C25.3365 8.68651 25.1917 7.97354 24.9108 7.30989C24.6299 6.64625 24.2185 6.04535 23.7008 5.54262C23.1831 5.03989 22.5696 4.64551 21.8966 4.38272C21.2235 4.11994 20.5044 3.99406 19.7817 4.01252C19.0849 4.01204 18.3949 4.14901 17.7515 4.41553C17.1081 4.68205 16.524 5.07285 16.033 5.56538V0.376773H13.9442ZM31.5334 4.02139C30.825 4.01835 30.1231 4.15479 29.4679 4.42287C28.8126 4.69095 28.217 5.08538 27.7152 5.5835C27.2134 6.08162 26.8154 6.67362 26.544 7.32548C26.2725 7.97734 26.133 8.67621 26.1335 9.38195C26.1335 12.4611 28.5763 14.7656 31.7433 14.7656C32.6228 14.7835 33.494 14.593 34.2853 14.21C35.0765 13.8269 35.7651 13.2621 36.2945 12.5621L34.7822 11.4666C34.4378 11.947 33.9811 12.3365 33.4516 12.6016C32.9221 12.8666 32.3358 12.9991 31.7433 12.9876C30.9032 12.998 30.0873 12.7075 29.4441 12.1691C28.8008 11.6307 28.3729 10.88 28.2383 10.0538H36.8087V9.38195C36.8087 6.30813 34.5776 4.02139 31.5352 4.02139H31.5334ZM42.4986 4.13838C42.0074 4.13412 41.5236 4.25702 41.0944 4.49505C40.6653 4.73308 40.3055 5.07807 40.0504 5.49625V4.2217H37.9812V14.5457H40.07V8.67465C40.07 7.0757 41.0646 6.04401 42.431 6.04401H43.3117V4.14193L42.4986 4.13838ZM31.4622 5.81179C32.2294 5.8014 32.976 6.05926 33.5722 6.54053C34.1684 7.0218 34.5764 7.69603 34.7253 8.44598H28.2881C28.434 7.71096 28.829 7.0482 29.4068 6.56866C29.9846 6.08913 30.7103 5.82192 31.4622 5.81179ZM19.6145 5.82242C20.0867 5.82219 20.5543 5.91462 20.9907 6.09445C21.427 6.27428 21.8236 6.53797 22.1576 6.87048C22.4917 7.20299 22.7567 7.5978 22.9377 8.03236C23.1186 8.46693 23.2118 8.93275 23.2121 9.40322C23.2123 9.87369 23.1195 10.3396 22.939 10.7743C22.7585 11.2091 22.4939 11.6042 22.1601 11.937C21.8264 12.2698 21.4301 12.5339 20.994 12.7142C20.5578 12.8944 20.0903 12.9873 19.6181 12.9876C18.6707 12.9798 17.7649 12.5986 17.0987 11.9275C16.431 11.2574 16.0568 10.3511 16.0579 9.40677C16.0563 8.46273 16.4299 7.55645 17.0969 6.88603C17.7621 6.21402 18.6672 5.83163 19.6145 5.82242Z" fill="#262626"/>
</svg>
