<svg width="101" height="52" viewBox="0 0 101 52" fill="none" xmlns="http://www.w3.org/2000/svg">
<g clip-path="url(#clip0_1571_896)">
<path d="M7.67383 24.6388V-32.8281" stroke="#532A10" stroke-width="2.20751" stroke-miterlimit="10" stroke-linecap="round" stroke-linejoin="round"/>
<path d="M93.9785 24.6388V-32.8281" stroke="#532A10" stroke-width="2.20751" stroke-miterlimit="10" stroke-linecap="round" stroke-linejoin="round"/>
<path d="M95.9318 28.9922H6.98047V51.6258H95.9318V28.9922Z" fill="#532A10"/>
<path d="M27.4274 44.269C26.6034 44.269 25.8914 44.089 25.2914 43.729C24.6994 43.361 24.2394 42.853 23.9114 42.205C23.5834 41.549 23.4194 40.789 23.4194 39.925C23.4194 39.069 23.5834 38.317 23.9114 37.669C24.2394 37.013 24.6994 36.501 25.2914 36.133C25.8914 35.765 26.6034 35.581 27.4274 35.581C28.3874 35.581 29.1674 35.813 29.7674 36.277C30.3754 36.733 30.7634 37.373 30.9314 38.197H29.8154C29.6874 37.677 29.4234 37.261 29.0234 36.949C28.6314 36.629 28.0994 36.469 27.4274 36.469C26.8274 36.469 26.3034 36.609 25.8554 36.889C25.4074 37.161 25.0594 37.557 24.8114 38.077C24.5714 38.589 24.4514 39.205 24.4514 39.925C24.4514 40.645 24.5714 41.265 24.8114 41.785C25.0594 42.297 25.4074 42.693 25.8554 42.973C26.3034 43.245 26.8274 43.381 27.4274 43.381C28.0994 43.381 28.6314 43.229 29.0234 42.925C29.4234 42.613 29.6874 42.201 29.8154 41.689H30.9314C30.7634 42.497 30.3754 43.129 29.7674 43.585C29.1674 44.041 28.3874 44.269 27.4274 44.269ZM34.3001 44.269C33.8041 44.269 33.3921 44.185 33.0641 44.017C32.7361 43.849 32.4921 43.625 32.3321 43.345C32.1721 43.065 32.0921 42.761 32.0921 42.433C32.0921 41.825 32.3241 41.357 32.7881 41.029C33.2521 40.701 33.8841 40.537 34.6841 40.537H36.2921V40.465C36.2921 39.945 36.1561 39.553 35.8841 39.289C35.6121 39.017 35.2481 38.881 34.7921 38.881C34.4001 38.881 34.0601 38.981 33.7721 39.181C33.4921 39.373 33.3161 39.657 33.2441 40.033H32.2121C32.2521 39.601 32.3961 39.237 32.6441 38.941C32.9001 38.645 33.2161 38.421 33.5921 38.269C33.9681 38.109 34.3681 38.029 34.7921 38.029C35.6241 38.029 36.2481 38.253 36.6641 38.701C37.0881 39.141 37.3001 39.729 37.3001 40.465V44.125H36.4001L36.3401 43.057C36.1721 43.393 35.9241 43.681 35.5961 43.921C35.2761 44.153 34.8441 44.269 34.3001 44.269ZM34.4561 43.417C34.8401 43.417 35.1681 43.317 35.4401 43.117C35.7201 42.917 35.9321 42.657 36.0761 42.337C36.2201 42.017 36.2921 41.681 36.2921 41.329V41.317H34.7681C34.1761 41.317 33.7561 41.421 33.5081 41.629C33.2681 41.829 33.1481 42.081 33.1481 42.385C33.1481 42.697 33.2601 42.949 33.4841 43.141C33.7161 43.325 34.0401 43.417 34.4561 43.417ZM39.1363 44.125V39.025H38.2363V38.173H39.1363V37.141C39.1363 36.565 39.2803 36.145 39.5683 35.881C39.8563 35.617 40.2763 35.485 40.8283 35.485H41.4283V36.349H40.9843C40.6803 36.349 40.4643 36.413 40.3363 36.541C40.2083 36.661 40.1443 36.869 40.1443 37.165V38.173H41.6083V39.025H40.1443V44.125H39.1363ZM45.25 44.269C44.682 44.269 44.178 44.141 43.738 43.885C43.298 43.621 42.95 43.257 42.694 42.793C42.446 42.329 42.322 41.781 42.322 41.149C42.322 40.525 42.446 39.981 42.694 39.517C42.942 39.045 43.286 38.681 43.726 38.425C44.174 38.161 44.69 38.029 45.274 38.029C45.85 38.029 46.346 38.161 46.762 38.425C47.186 38.681 47.51 39.021 47.734 39.445C47.958 39.869 48.07 40.325 48.07 40.813C48.07 40.901 48.066 40.989 48.058 41.077C48.058 41.165 48.058 41.265 48.058 41.377H43.318C43.342 41.833 43.446 42.213 43.63 42.517C43.822 42.813 44.058 43.037 44.338 43.189C44.626 43.341 44.93 43.417 45.25 43.417C45.666 43.417 46.014 43.321 46.294 43.129C46.574 42.937 46.778 42.677 46.906 42.349H47.902C47.742 42.901 47.434 43.361 46.978 43.729C46.53 44.089 45.954 44.269 45.25 44.269ZM45.25 38.881C44.77 38.881 44.342 39.029 43.966 39.325C43.598 39.613 43.386 40.037 43.33 40.597H47.074C47.05 40.061 46.866 39.641 46.522 39.337C46.178 39.033 45.754 38.881 45.25 38.881ZM44.974 37.681V36.925L47.494 35.401V36.277L44.974 37.681ZM52.6418 44.125V35.725H55.5938C56.1858 35.725 56.6738 35.821 57.0578 36.013C57.4498 36.197 57.7418 36.453 57.9338 36.781C58.1258 37.101 58.2218 37.461 58.2218 37.861C58.2218 38.405 58.0738 38.833 57.7778 39.145C57.4898 39.457 57.1418 39.673 56.7338 39.793C57.0458 39.849 57.3298 39.973 57.5858 40.165C57.8418 40.357 58.0418 40.597 58.1858 40.885C58.3378 41.173 58.4138 41.489 58.4138 41.833C58.4138 42.257 58.3098 42.645 58.1018 42.997C57.8938 43.341 57.5858 43.617 57.1778 43.825C56.7698 44.025 56.2738 44.125 55.6898 44.125H52.6418ZM53.6498 39.397H55.5218C56.0578 39.397 56.4698 39.273 56.7578 39.025C57.0458 38.769 57.1898 38.417 57.1898 37.969C57.1898 37.545 57.0458 37.205 56.7578 36.949C56.4778 36.693 56.0538 36.565 55.4858 36.565H53.6498V39.397ZM53.6498 43.285H55.5818C56.1578 43.285 56.6018 43.153 56.9138 42.889C57.2258 42.617 57.3818 42.241 57.3818 41.761C57.3818 41.289 57.2178 40.913 56.8898 40.633C56.5618 40.345 56.1178 40.201 55.5578 40.201H53.6498V43.285ZM59.8006 44.125V35.485H60.8086V44.125H59.8006ZM64.4407 44.269C63.9447 44.269 63.5327 44.185 63.2047 44.017C62.8767 43.849 62.6327 43.625 62.4727 43.345C62.3127 43.065 62.2327 42.761 62.2327 42.433C62.2327 41.825 62.4647 41.357 62.9287 41.029C63.3927 40.701 64.0247 40.537 64.8247 40.537H66.4327V40.465C66.4327 39.945 66.2967 39.553 66.0247 39.289C65.7527 39.017 65.3887 38.881 64.9327 38.881C64.5407 38.881 64.2007 38.981 63.9127 39.181C63.6327 39.373 63.4567 39.657 63.3847 40.033H62.3527C62.3927 39.601 62.5367 39.237 62.7847 38.941C63.0407 38.645 63.3567 38.421 63.7327 38.269C64.1087 38.109 64.5087 38.029 64.9327 38.029C65.7647 38.029 66.3887 38.253 66.8047 38.701C67.2287 39.141 67.4407 39.729 67.4407 40.465V44.125H66.5407L66.4807 43.057C66.3127 43.393 66.0647 43.681 65.7367 43.921C65.4167 44.153 64.9847 44.269 64.4407 44.269ZM64.5967 43.417C64.9807 43.417 65.3087 43.317 65.5807 43.117C65.8607 42.917 66.0727 42.657 66.2167 42.337C66.3607 42.017 66.4327 41.681 66.4327 41.329V41.317H64.9087C64.3167 41.317 63.8967 41.421 63.6487 41.629C63.4087 41.829 63.2887 42.081 63.2887 42.385C63.2887 42.697 63.4007 42.949 63.6247 43.141C63.8567 43.325 64.1807 43.417 64.5967 43.417ZM68.9529 44.125V38.173H69.8649L69.9249 39.241C70.1169 38.865 70.3929 38.569 70.7529 38.353C71.1129 38.137 71.5209 38.029 71.9769 38.029C72.6809 38.029 73.2409 38.245 73.6569 38.677C74.0809 39.101 74.2929 39.757 74.2929 40.645V44.125H73.2849V40.753C73.2849 39.513 72.7729 38.893 71.7489 38.893C71.2369 38.893 70.8089 39.081 70.4649 39.457C70.1289 39.825 69.9609 40.353 69.9609 41.041V44.125H68.9529ZM78.5561 44.269C77.9881 44.269 77.4761 44.141 77.0201 43.885C76.5721 43.621 76.2161 43.257 75.9521 42.793C75.6961 42.321 75.5681 41.773 75.5681 41.149C75.5681 40.525 75.6961 39.981 75.9521 39.517C76.2161 39.045 76.5721 38.681 77.0201 38.425C77.4761 38.161 77.9881 38.029 78.5561 38.029C79.2601 38.029 79.8521 38.213 80.3321 38.581C80.8201 38.949 81.1281 39.441 81.2561 40.057H80.2241C80.1441 39.689 79.9481 39.405 79.6361 39.205C79.3241 38.997 78.9601 38.893 78.5441 38.893C78.2081 38.893 77.8921 38.977 77.5961 39.145C77.3001 39.313 77.0601 39.565 76.8761 39.901C76.6921 40.237 76.6001 40.653 76.6001 41.149C76.6001 41.645 76.6921 42.061 76.8761 42.397C77.0601 42.733 77.3001 42.989 77.5961 43.165C77.8921 43.333 78.2081 43.417 78.5441 43.417C78.9601 43.417 79.3241 43.317 79.6361 43.117C79.9481 42.909 80.1441 42.617 80.2241 42.241H81.2561C81.1361 42.841 80.8321 43.329 80.3441 43.705C79.8561 44.081 79.2601 44.269 78.5561 44.269Z" fill="#FFFAF4"/>
<path d="M7.67365 32.1239C10.4166 32.1239 12.6403 29.9319 12.6403 27.2279C12.6403 24.524 10.4166 22.332 7.67365 22.332C4.93067 22.332 2.70703 24.524 2.70703 27.2279C2.70703 29.9319 4.93067 32.1239 7.67365 32.1239Z" fill="#FFFAF4" stroke="#532A10" stroke-width="2.20751" stroke-miterlimit="10" stroke-linecap="round" stroke-linejoin="round"/>
<path d="M93.9783 32.6825C96.7213 32.6825 98.9449 30.4905 98.9449 27.7865C98.9449 25.0826 96.7213 22.8906 93.9783 22.8906C91.2354 22.8906 89.0117 25.0826 89.0117 27.7865C89.0117 30.4905 91.2354 32.6825 93.9783 32.6825Z" fill="#FFFAF4" stroke="#532A10" stroke-width="2.20751" stroke-miterlimit="10" stroke-linecap="round" stroke-linejoin="round"/>
</g>
<defs>
<clipPath id="clip0_1571_896">
<rect width="100" height="51" fill="white" transform="translate(0.826172 0.6875)"/>
</clipPath>
</defs>
</svg>
