<svg width="120" height="51" viewBox="0 0 120 51" fill="none" xmlns="http://www.w3.org/2000/svg">
<g clip-path="url(#clip0_1646_1412)">
<path d="M6.23804 23.9513V-33.5156" stroke="#532A10" stroke-width="2" stroke-miterlimit="10" stroke-linecap="round" stroke-linejoin="round"/>
<path d="M114.662 20.2031H5.45435V50.9381H114.662V20.2031Z" fill="#532A10"/>
<path d="M27.6527 41.6175C26.6127 41.6175 25.7127 41.3925 24.9527 40.9425C24.2027 40.4825 23.6227 39.8475 23.2127 39.0375C22.8027 38.2175 22.5977 37.2725 22.5977 36.2025C22.5977 35.1225 22.8027 34.1775 23.2127 33.3675C23.6227 32.5475 24.2027 31.9075 24.9527 31.4475C25.7127 30.9875 26.6127 30.7575 27.6527 30.7575C28.8827 30.7575 29.8877 31.0575 30.6677 31.6575C31.4477 32.2575 31.9427 33.0975 32.1527 34.1775H30.3826C30.2426 33.5675 29.9426 33.0825 29.4826 32.7225C29.0227 32.3625 28.4077 32.1825 27.6377 32.1825C26.5877 32.1825 25.7577 32.5425 25.1477 33.2625C24.5377 33.9725 24.2327 34.9525 24.2327 36.2025C24.2327 37.4425 24.5377 38.4175 25.1477 39.1275C25.7577 39.8375 26.5877 40.1925 27.6377 40.1925C28.4077 40.1925 29.0227 40.0225 29.4826 39.6825C29.9426 39.3425 30.2426 38.8775 30.3826 38.2875H32.1527C31.9427 39.3275 31.4477 40.1425 30.6677 40.7325C29.8877 41.3225 28.8827 41.6175 27.6527 41.6175ZM36.6604 41.6175C36.0304 41.6175 35.5104 41.5125 35.1004 41.3025C34.6904 41.0925 34.3854 40.8175 34.1854 40.4775C33.9854 40.1275 33.8854 39.7475 33.8854 39.3375C33.8854 38.6175 34.1654 38.0475 34.7254 37.6275C35.2854 37.2075 36.0854 36.9975 37.1254 36.9975H39.0754V36.8625C39.0754 36.2825 38.9154 35.8475 38.5954 35.5575C38.2854 35.2675 37.8804 35.1225 37.3804 35.1225C36.9404 35.1225 36.5554 35.2325 36.2254 35.4525C35.9054 35.6625 35.7104 35.9775 35.6404 36.3975H34.0504C34.1004 35.8575 34.2804 35.3975 34.5904 35.0175C34.9104 34.6275 35.3104 34.3325 35.7904 34.1325C36.2804 33.9225 36.8154 33.8175 37.3954 33.8175C38.4354 33.8175 39.2404 34.0925 39.8104 34.6425C40.3804 35.1825 40.6654 35.9225 40.6654 36.8625V41.4375H39.2854L39.1504 40.1625C38.9404 40.5725 38.6354 40.9175 38.2354 41.1975C37.8354 41.4775 37.3104 41.6175 36.6604 41.6175ZM36.9754 40.3275C37.4054 40.3275 37.7654 40.2275 38.0554 40.0275C38.3554 39.8175 38.5854 39.5425 38.7454 39.2025C38.9154 38.8625 39.0204 38.4875 39.0604 38.0775H37.2904C36.6604 38.0775 36.2104 38.1875 35.9404 38.4075C35.6804 38.6275 35.5504 38.9025 35.5504 39.2325C35.5504 39.5725 35.6754 39.8425 35.9254 40.0425C36.1854 40.2325 36.5354 40.3275 36.9754 40.3275ZM43.1943 41.4375V35.3325H42.1293V33.9975H43.1943V32.9175C43.1943 32.1075 43.3943 31.5275 43.7943 31.1775C44.2043 30.8175 44.7793 30.6375 45.5193 30.6375H46.2993V31.9875H45.7593C45.4093 31.9875 45.1593 32.0625 45.0093 32.2125C44.8593 32.3525 44.7843 32.5925 44.7843 32.9325V33.9975H46.4943V35.3325H44.7843V41.4375H43.1943ZM51.4919 41.6175C50.7619 41.6175 50.1119 41.4575 49.5419 41.1375C48.9819 40.8075 48.5419 40.3525 48.2219 39.7725C47.9019 39.1925 47.7419 38.5175 47.7419 37.7475C47.7419 36.9675 47.8969 36.2825 48.2069 35.6925C48.5269 35.1025 48.9669 34.6425 49.5269 34.3125C50.0969 33.9825 50.7569 33.8175 51.5069 33.8175C52.2369 33.8175 52.8719 33.9825 53.4119 34.3125C53.9519 34.6325 54.3719 35.0625 54.6719 35.6025C54.9719 36.1425 55.1219 36.7375 55.1219 37.3875C55.1219 37.4875 55.1169 37.5975 55.1069 37.7175C55.1069 37.8275 55.1019 37.9525 55.0919 38.0925H49.3019C49.3519 38.8125 49.5869 39.3625 50.0069 39.7425C50.4369 40.1125 50.9319 40.2975 51.4919 40.2975C51.9419 40.2975 52.3169 40.1975 52.6169 39.9975C52.9269 39.7875 53.1569 39.5075 53.3069 39.1575H54.8969C54.6969 39.8575 54.2969 40.4425 53.6969 40.9125C53.1069 41.3825 52.3719 41.6175 51.4919 41.6175ZM51.4919 35.1225C50.9619 35.1225 50.4919 35.2825 50.0819 35.6025C49.6719 35.9125 49.4219 36.3825 49.3319 37.0125H53.5319C53.5019 36.4325 53.2969 35.9725 52.9169 35.6325C52.5369 35.2925 52.0619 35.1225 51.4919 35.1225ZM51.0569 33.3825V32.2425L54.3269 30.3825V31.7025L51.0569 33.3825ZM61.2109 41.4375V30.9375H65.1709C66.2609 30.9375 67.0859 31.1925 67.6459 31.7025C68.2059 32.2125 68.4859 32.8525 68.4859 33.6225C68.4859 34.2925 68.3059 34.8275 67.9459 35.2275C67.5859 35.6175 67.1509 35.8825 66.6409 36.0225C67.0409 36.1025 67.3959 36.2625 67.7059 36.5025C68.0259 36.7425 68.2759 37.0425 68.4559 37.4025C68.6359 37.7625 68.7259 38.1525 68.7259 38.5725C68.7259 39.1125 68.5909 39.6025 68.3209 40.0425C68.0609 40.4725 67.6759 40.8125 67.1659 41.0625C66.6559 41.3125 66.0309 41.4375 65.2909 41.4375H61.2109ZM62.8009 35.4375H64.9759C65.5859 35.4375 66.0509 35.2975 66.3709 35.0175C66.6909 34.7275 66.8509 34.3325 66.8509 33.8325C66.8509 33.3425 66.6909 32.9525 66.3709 32.6625C66.0609 32.3725 65.5859 32.2275 64.9459 32.2275H62.8009V35.4375ZM62.8009 40.1325H65.0809C65.7209 40.1325 66.2159 39.9825 66.5659 39.6825C66.9259 39.3825 67.1059 38.9625 67.1059 38.4225C67.1059 37.8825 66.9209 37.4575 66.5509 37.1475C66.1809 36.8275 65.6809 36.6675 65.0509 36.6675H62.8009V40.1325ZM70.7087 41.4375V30.6375H72.2987V41.4375H70.7087ZM77.1323 41.6175C76.5023 41.6175 75.9823 41.5125 75.5723 41.3025C75.1623 41.0925 74.8573 40.8175 74.6573 40.4775C74.4573 40.1275 74.3573 39.7475 74.3573 39.3375C74.3573 38.6175 74.6373 38.0475 75.1973 37.6275C75.7573 37.2075 76.5573 36.9975 77.5973 36.9975H79.5473V36.8625C79.5473 36.2825 79.3873 35.8475 79.0673 35.5575C78.7573 35.2675 78.3523 35.1225 77.8523 35.1225C77.4123 35.1225 77.0273 35.2325 76.6973 35.4525C76.3773 35.6625 76.1823 35.9775 76.1123 36.3975H74.5223C74.5723 35.8575 74.7523 35.3975 75.0623 35.0175C75.3823 34.6275 75.7823 34.3325 76.2623 34.1325C76.7523 33.9225 77.2873 33.8175 77.8673 33.8175C78.9073 33.8175 79.7123 34.0925 80.2823 34.6425C80.8523 35.1825 81.1373 35.9225 81.1373 36.8625V41.4375H79.7573L79.6223 40.1625C79.4123 40.5725 79.1073 40.9175 78.7073 41.1975C78.3073 41.4775 77.7823 41.6175 77.1323 41.6175ZM77.4473 40.3275C77.8773 40.3275 78.2373 40.2275 78.5273 40.0275C78.8273 39.8175 79.0573 39.5425 79.2173 39.2025C79.3873 38.8625 79.4923 38.4875 79.5323 38.0775H77.7623C77.1323 38.0775 76.6823 38.1875 76.4123 38.4075C76.1523 38.6275 76.0223 38.9025 76.0223 39.2325C76.0223 39.5725 76.1473 39.8425 76.3973 40.0425C76.6573 40.2325 77.0073 40.3275 77.4473 40.3275ZM83.2912 41.4375V33.9975H84.7012L84.8212 35.3025C85.0512 34.8425 85.3862 34.4825 85.8262 34.2225C86.2762 33.9525 86.7912 33.8175 87.3712 33.8175C88.2712 33.8175 88.9762 34.0975 89.4862 34.6575C90.0062 35.2175 90.2662 36.0525 90.2662 37.1625V41.4375H88.6912V37.3275C88.6912 35.8875 88.1012 35.1675 86.9212 35.1675C86.3312 35.1675 85.8412 35.3775 85.4512 35.7975C85.0712 36.2175 84.8812 36.8175 84.8812 37.5975V41.4375H83.2912ZM95.9638 41.6175C95.2338 41.6175 94.5788 41.4525 93.9988 41.1225C93.4288 40.7925 92.9788 40.3375 92.6488 39.7575C92.3288 39.1675 92.1688 38.4875 92.1688 37.7175C92.1688 36.9475 92.3288 36.2725 92.6488 35.6925C92.9788 35.1025 93.4288 34.6425 93.9988 34.3125C94.5788 33.9825 95.2338 33.8175 95.9638 33.8175C96.8838 33.8175 97.6538 34.0575 98.2738 34.5375C98.9038 35.0175 99.3088 35.6675 99.4888 36.4875H97.8238C97.7238 36.0775 97.5038 35.7575 97.1638 35.5275C96.8238 35.2975 96.4238 35.1825 95.9638 35.1825C95.5738 35.1825 95.2138 35.2825 94.8838 35.4825C94.5538 35.6725 94.2888 35.9575 94.0888 36.3375C93.8888 36.7075 93.7888 37.1675 93.7888 37.7175C93.7888 38.2675 93.8888 38.7325 94.0888 39.1125C94.2888 39.4825 94.5538 39.7675 94.8838 39.9675C95.2138 40.1675 95.5738 40.2675 95.9638 40.2675C96.4238 40.2675 96.8238 40.1525 97.1638 39.9225C97.5038 39.6925 97.7238 39.3675 97.8238 38.9475H99.4888C99.3188 39.7475 98.9188 40.3925 98.2888 40.8825C97.6588 41.3725 96.8838 41.6175 95.9638 41.6175Z" fill="#FFFAF4"/>
<path d="M7.23791 27.995C10.0705 27.995 12.3667 25.803 12.3667 23.099C12.3667 20.3951 10.0705 18.2031 7.23791 18.2031C4.40537 18.2031 2.10913 20.3951 2.10913 23.099C2.10913 25.803 4.40537 27.995 7.23791 27.995Z" fill="#FFFAF4" stroke="#532A10" stroke-width="2" stroke-miterlimit="10" stroke-linecap="round" stroke-linejoin="round"/>
<path d="M113.467 23.9513L113.467 -15.7495" stroke="#532A10" stroke-width="2.20751" stroke-miterlimit="10" stroke-linecap="round" stroke-linejoin="round"/>
<path d="M112.467 27.995C115.21 27.995 117.433 25.803 117.433 23.099C117.433 20.3951 115.21 18.2031 112.467 18.2031C109.724 18.2031 107.5 20.3951 107.5 23.099C107.5 25.803 109.724 27.995 112.467 27.995Z" fill="#FFFAF4" stroke="#532A10" stroke-width="2.20751" stroke-miterlimit="10" stroke-linecap="round" stroke-linejoin="round"/>
</g>
<defs>
<clipPath id="clip0_1646_1412">
<rect width="120" height="51" fill="white"/>
</clipPath>
</defs>
</svg>
