<svg width="65" height="54" viewBox="0 0 65 54" fill="none" xmlns="http://www.w3.org/2000/svg">
<path d="M0.167969 31.9793V53.4539H15.5836V49.7711H4.33305V44.4637H15.2819V40.921H4.33305V35.654H15.5836V31.9766L0.167969 31.9793ZM39.3941 33.0838V37.6234H36.2959V41.2281H39.4049V49.6957C39.4049 51.8321 40.9459 53.524 43.7154 53.524H48.1418L48.1257 49.9193H45.0517C44.1141 49.9193 43.5107 49.5152 43.5107 48.6692V41.2119H48.123V37.6234H43.5268V33.0811L39.3941 33.0838ZM25.1234 37.1977C24.0158 37.1948 22.9186 37.4119 21.8956 37.8366C20.8726 38.2613 19.9442 38.8851 19.1644 39.6717C18.3845 40.4583 17.7687 41.392 17.3529 42.4186C16.937 43.4452 16.7292 44.5442 16.7417 45.6518C16.7542 46.7594 16.9867 47.8534 17.4256 48.8704C17.8646 49.8874 18.5013 50.8069 19.2987 51.5757C20.0961 52.3445 21.0383 52.9472 22.0706 53.3487C23.1029 53.7502 24.2047 53.9426 25.312 53.9146C27.1864 53.9342 29.0089 53.2997 30.4658 52.1204V53.5536H34.5528V37.6234H30.4874V39.0405C29.0305 37.8424 27.201 37.1906 25.3147 37.1977H25.1261H25.1234ZM56.8357 37.2166C52.5655 37.2166 49.5616 38.9516 49.5616 42.2977C49.5616 44.6146 51.2131 46.126 54.7774 46.8642L58.6784 47.7478C60.2141 48.0442 60.6236 48.4456 60.6236 49.0679C60.6236 50.0674 59.4436 50.6925 57.5873 50.6925C55.2273 50.6925 53.8749 50.1806 53.3495 48.4079H49.2195C49.8122 51.7243 52.3365 53.9308 57.4338 53.9308H57.4392C62.1592 53.9308 64.8264 51.7243 64.8264 48.6692C64.8264 46.4978 63.2503 44.8759 59.9528 44.1781L56.4666 43.4777C54.4433 43.1113 53.8048 42.7395 53.8048 42.0067C53.8048 41.0449 54.7774 40.4576 56.5797 40.4576C58.5249 40.4576 59.9528 40.9749 60.365 42.7395H64.4546C64.2229 39.4284 61.7874 37.2166 56.8384 37.2166H56.8357ZM25.673 40.5842C28.3941 40.6112 30.5736 42.8392 30.5413 45.5602C30.542 46.2032 30.4149 46.8399 30.1673 47.4333C29.9198 48.0268 29.5566 48.565 29.0991 49.0168C28.6416 49.4685 28.0987 49.8248 27.5022 50.0649C26.9057 50.3049 26.2675 50.4239 25.6245 50.415C24.3212 50.4086 23.0739 49.8847 22.1569 48.9586C21.2399 48.0324 20.7283 46.78 20.7347 45.4767C20.7412 44.1734 21.2651 42.9261 22.1912 42.0091C23.1173 41.092 24.3697 40.5805 25.673 40.5869V40.5842Z" fill="#5FB709"/>
<path d="M0.167969 0.760506V14.2229C0.167969 19.2959 3.75382 22.6555 8.47388 22.6555C9.54867 22.6716 10.6157 22.4707 11.6109 22.0647C12.6062 21.6587 13.5094 21.056 14.2662 20.2927V22.2945H17.5314V0.757812H14.2393V14.0505C14.2393 17.4585 11.8954 19.762 8.86452 19.7674C5.79594 19.762 3.48441 17.5205 3.48441 14.0505V0.757812L0.167969 0.760506ZM20.0019 0.760506V22.2945H23.1352V20.3224C23.8844 21.0716 24.7741 21.6657 25.7532 22.0706C26.7323 22.4756 27.7817 22.6835 28.8413 22.6824C29.9356 22.7105 31.0244 22.5192 32.0436 22.1198C33.0628 21.7204 33.9917 21.121 34.7755 20.357C35.5594 19.5929 36.1824 18.6797 36.6078 17.6711C37.0332 16.6625 37.2523 15.5789 37.2523 14.4843C37.2523 13.3896 37.0332 12.3061 36.6078 11.2974C36.1824 10.2888 35.5594 9.37558 34.7755 8.61154C33.9917 7.8475 33.0628 7.24812 32.0436 6.84873C31.0244 6.44935 29.9356 6.25805 28.8413 6.28611C27.7862 6.28538 26.7414 6.49354 25.7671 6.8986C24.7928 7.30366 23.9084 7.89759 23.1648 8.64614V0.760506H20.0019ZM46.6358 6.29958C45.5632 6.29496 44.5003 6.50232 43.5082 6.90975C42.516 7.31717 41.6141 7.91663 40.8543 8.67367C40.0945 9.43072 39.4918 10.3304 39.0807 11.3211C38.6697 12.3118 38.4585 13.374 38.4592 14.4465C38.4592 19.1262 42.1582 22.6285 46.9537 22.6285C48.2855 22.6557 49.6047 22.3663 50.8028 21.7841C52.0009 21.202 53.0436 20.3436 53.8452 19.2798L51.5552 17.6148C51.0337 18.3449 50.3421 18.9369 49.5404 19.3397C48.7386 19.7424 47.8508 19.9438 46.9537 19.9263C45.6817 19.9421 44.4462 19.5007 43.4722 18.6824C42.4981 17.8641 41.8502 16.7233 41.6463 15.4676H54.6238V14.4465C54.6238 9.77497 51.2454 6.29958 46.6385 6.29958H46.6358ZM63.2396 6.47739C62.4958 6.47091 61.7632 6.65769 61.1134 7.01945C60.4635 7.3812 59.9188 7.90552 59.5325 8.54107V6.60401H56.3992V22.2945H59.5621V13.3716C59.5621 10.9415 61.0681 9.37355 63.1372 9.37355H64.4708V6.48278L63.2396 6.47739ZM46.5281 9.02062C47.6898 9.00484 48.8203 9.39673 49.723 10.1282C50.6258 10.8596 51.2436 11.8843 51.469 13.0241H41.7218C41.9427 11.907 42.5408 10.8997 43.4157 10.1709C44.2907 9.44212 45.3894 9.03603 46.5281 9.02062ZM28.588 9.03678C29.3031 9.03643 30.0111 9.17691 30.6719 9.45021C31.3326 9.72351 31.933 10.1243 32.4389 10.6296C32.9447 11.135 33.3461 11.735 33.62 12.3954C33.894 13.0559 34.0352 13.7638 34.0355 14.4789C34.0359 15.1939 33.8954 15.902 33.6221 16.5627C33.3488 17.2234 32.948 17.8238 32.4427 18.3297C31.9373 18.8355 31.3373 19.2369 30.6768 19.5108C30.0164 19.7848 29.3084 19.926 28.5934 19.9263C27.1589 19.9145 25.7874 19.3353 24.7786 18.3153C23.7675 17.2968 23.2008 15.9194 23.2025 14.4843C23.2001 13.0495 23.7658 11.6722 24.7759 10.6532C25.7831 9.63193 27.1537 9.05078 28.588 9.03678Z" fill="#262626"/>
</svg>
