<svg width="62" height="14" viewBox="0 0 62 14" fill="none" xmlns="http://www.w3.org/2000/svg">
<path d="M10.796 1.95139C11.0008 2.10083 11.277 2.32242 11.5576 2.62536C13.0316 4.2122 13.3287 6.67741 12.8009 8.65484C12.0441 11.4011 9.82212 12.6754 9.32811 12.907C8.37847 13.3514 7.55611 13.2798 7.55611 13.2798C7.38396 13.2693 7.25018 13.2398 7.16424 13.2106C8.74028 11.9566 9.21561 10.7921 9.35422 9.96052C9.62684 8.26389 8.53447 7.71722 8.82923 5.48496C8.8992 4.94959 9.14238 3.38674 10.3636 2.28381C10.5271 2.13165 10.6903 2.02733 10.796 1.95139Z" stroke="#532A10" stroke-width="0.863058" stroke-miterlimit="10" stroke-linecap="round" stroke-linejoin="round"/>
<path d="M7.42609 1.15636C5.51849 3.52786 5.28397 5.2534 5.48778 6.44087C5.66834 7.50862 6.20562 8.09044 6.1227 9.22846C6.02357 10.6965 4.97422 11.8577 4.06108 12.618C3.54165 12.2659 2.6844 11.5914 2.12143 10.4736C0.720905 7.72959 1.805 3.78445 4.43122 2.07233C5.55462 1.35154 6.71317 1.18584 7.42609 1.15636Z" stroke="#532A10" stroke-width="0.863058" stroke-miterlimit="10" stroke-linecap="round" stroke-linejoin="round"/>
<path d="M34.13 1.95139C34.3348 2.10083 34.611 2.32242 34.8915 2.62536C36.3655 4.2122 36.6626 6.67741 36.1349 8.65484C35.378 11.4011 33.1561 12.6754 32.6621 12.907C31.7125 13.3514 30.8901 13.2798 30.8901 13.2798C30.7179 13.2693 30.5842 13.2398 30.4982 13.2106C32.0743 11.9566 32.5496 10.7921 32.6882 9.96052C32.9608 8.26389 31.8685 7.71722 32.1632 5.48496C32.2332 4.94959 32.4764 3.38674 33.6976 2.28381C33.8611 2.13165 34.0243 2.02733 34.13 1.95139Z" stroke="#532A10" stroke-width="0.863058" stroke-miterlimit="10" stroke-linecap="round" stroke-linejoin="round"/>
<path d="M30.7581 1.15636C28.8505 3.52786 28.616 5.2534 28.8198 6.44087C29.0004 7.50862 29.5377 8.09044 29.4547 9.22846C29.3556 10.6965 28.3063 11.8577 27.3931 12.618C26.8737 12.2659 26.0164 11.5914 25.4535 10.4736C24.0529 7.72959 25.137 3.78445 27.7632 2.07233C28.8866 1.35154 30.0452 1.18584 30.7581 1.15636Z" stroke="#532A10" stroke-width="0.863058" stroke-miterlimit="10" stroke-linecap="round" stroke-linejoin="round"/>
<path d="M57.4659 1.95139C57.6708 2.10083 57.947 2.32242 58.2275 2.62536C59.7015 4.2122 59.9986 6.67741 59.4709 8.65484C58.714 11.4011 56.492 12.6754 55.998 12.907C55.0484 13.3514 54.226 13.2798 54.226 13.2798C54.0539 13.2693 53.9201 13.2398 53.8342 13.2106C55.4102 11.9566 55.8855 10.7921 56.0241 9.96052C56.2968 8.26389 55.2044 7.71722 55.4992 5.48496C55.5691 4.94959 55.8123 3.38674 57.0335 2.28381C57.197 2.13165 57.3602 2.02733 57.4659 1.95139Z" stroke="#532A10" stroke-width="0.863058" stroke-miterlimit="10" stroke-linecap="round" stroke-linejoin="round"/>
<path d="M54.096 1.15636C52.1884 3.52786 51.9539 5.2534 52.1577 6.44087C52.3383 7.50862 52.8755 8.09044 52.7926 9.22846C52.6935 10.6965 51.6441 11.8577 50.731 12.618C50.2116 12.2659 49.3543 11.5914 48.7914 10.4736C47.3908 7.72959 48.4749 3.78445 51.1011 2.07233C52.2245 1.35154 53.3831 1.18584 54.096 1.15636Z" stroke="#532A10" stroke-width="0.863058" stroke-miterlimit="10" stroke-linecap="round" stroke-linejoin="round"/>
</svg>
