<svg width="54" height="45" viewBox="0 0 54 45" fill="none" xmlns="http://www.w3.org/2000/svg">
<path d="M0.955078 26.3225V43.8168H13.5134V40.8166H4.34814V36.4929H13.2676V33.6068H4.34814V29.3161H13.5134V26.3203L0.955078 26.3225ZM32.9105 27.2223V30.9205H30.3865V33.857H32.9193V40.7551C32.9193 42.4955 34.1746 43.8738 36.4308 43.8738H40.0368L40.0236 40.9373H37.5194C36.7557 40.9373 36.264 40.6081 36.264 39.9189V33.8439H40.0214V30.9205H36.2772V27.2202L32.9105 27.2223ZM21.2849 30.5737C20.3826 30.5713 19.4888 30.7482 18.6554 31.0942C17.822 31.4402 17.0657 31.9483 16.4304 32.5891C15.7951 33.2299 15.2935 33.9906 14.9547 34.8269C14.6159 35.6632 14.4466 36.5585 14.4568 37.4608C14.467 38.3631 14.6564 39.2543 15.014 40.0828C15.3716 40.9113 15.8902 41.6604 16.5398 42.2867C17.1894 42.913 17.957 43.4039 18.798 43.731C19.6389 44.0581 20.5365 44.2148 21.4386 44.1921C22.9655 44.208 24.4502 43.6911 25.6371 42.7304V43.898H28.9665V30.9205H25.6547V32.0749C24.4678 31.0989 22.9774 30.5679 21.4408 30.5737H21.2871H21.2849ZM47.1192 30.5891C43.6406 30.5891 41.1934 32.0025 41.1934 34.7284C41.1934 36.6158 42.5388 37.8471 45.4424 38.4484L48.6204 39.1683C49.8714 39.4097 50.205 39.7367 50.205 40.2437C50.205 41.058 49.2437 41.5672 47.7315 41.5672C45.809 41.5672 44.7072 41.1502 44.2792 39.706H40.9147C41.3975 42.4077 43.454 44.2052 47.6064 44.2052H47.6108C51.456 44.2052 53.6288 42.4077 53.6288 39.9189C53.6288 38.15 52.3449 36.8287 49.6585 36.2603L46.8185 35.6896C45.1703 35.3912 44.6501 35.0883 44.6501 34.4913C44.6501 33.7078 45.4424 33.2294 46.9107 33.2294C48.4953 33.2294 49.6585 33.6507 49.9943 35.0883H53.3259C53.1372 32.391 51.1531 30.5891 47.1214 30.5891H47.1192ZM21.7327 33.3325C23.9494 33.3545 25.7249 35.1695 25.6986 37.3862C25.6992 37.91 25.5957 38.4287 25.394 38.9121C25.1923 39.3955 24.8964 39.834 24.5237 40.2021C24.151 40.5701 23.7088 40.8603 23.2228 41.0559C22.7369 41.2514 22.2169 41.3484 21.6932 41.3411C20.6314 41.3359 19.6153 40.9091 18.8683 40.1546C18.1212 39.4002 17.7045 38.3799 17.7097 37.3181C17.715 36.2564 18.1417 35.2403 18.8962 34.4932C19.6506 33.7462 20.671 33.3295 21.7327 33.3347V33.3325Z" fill="#5FB709"/>
<path d="M0.955078 0.896726V11.8638C0.955078 15.9965 3.87627 18.7334 7.72146 18.7334C8.59703 18.7465 9.46625 18.5828 10.2771 18.2521C11.0879 17.9214 11.8236 17.4304 12.4401 16.8086V18.4393H15.1002V0.894531H12.4182V11.7234C12.4182 14.4997 10.5088 16.3762 8.03969 16.3806C5.53989 16.3762 3.6568 14.5502 3.6568 11.7234V0.894531L0.955078 0.896726ZM17.1127 0.896726V18.4393H19.6652V16.8327C20.2756 17.4431 21.0003 17.927 21.798 18.257C22.5956 18.5869 23.4505 18.7562 24.3137 18.7553C25.2051 18.7782 26.0921 18.6223 26.9224 18.297C27.7527 17.9716 28.5094 17.4833 29.148 16.8609C29.7866 16.2385 30.2941 15.4945 30.6406 14.6729C30.9872 13.8512 31.1657 12.9685 31.1657 12.0767C31.1657 11.185 30.9872 10.3023 30.6406 9.4806C30.2941 8.65894 29.7866 7.91497 29.148 7.29254C28.5094 6.67012 27.7527 6.18183 26.9224 5.85648C26.0921 5.53112 25.2051 5.37528 24.3137 5.39813C23.4541 5.39754 22.603 5.56712 21.8093 5.8971C21.0156 6.22708 20.2951 6.71092 19.6894 7.32073V0.896726H17.1127ZM38.8099 5.40911C37.9362 5.40535 37.0703 5.57428 36.262 5.90618C35.4537 6.23809 34.719 6.72643 34.1 7.34316C33.4811 7.95988 32.9901 8.69283 32.6552 9.49989C32.3204 10.307 32.1483 11.1722 32.1489 12.046C32.1489 15.8583 35.1623 18.7114 39.0689 18.7114C40.1538 18.7336 41.2285 18.4978 42.2045 18.0235C43.1806 17.5493 44.03 16.85 44.683 15.9834L42.8175 14.627C42.3926 15.2218 41.8293 15.7041 41.1761 16.0322C40.523 16.3603 39.7997 16.5243 39.0689 16.5101C38.0326 16.523 37.0262 16.1634 36.2327 15.4967C35.4392 14.8301 34.9113 13.9008 34.7453 12.8778H45.3173V12.046C45.3173 8.24032 42.5651 5.40911 38.8121 5.40911H38.8099ZM52.3361 5.55396C51.7302 5.54868 51.1334 5.70085 50.604 5.99555C50.0746 6.29025 49.6308 6.71739 49.3161 7.23513V5.65711H46.7637V18.4393H49.3403V11.1703C49.3403 9.19064 50.5671 7.91331 52.2527 7.91331H53.3391V5.55835L52.3361 5.55396ZM38.7221 7.6258C39.6686 7.61294 40.5895 7.93219 41.3249 8.52805C42.0603 9.12391 42.5636 9.95867 42.7473 10.8872H34.8067C34.9867 9.97715 35.4739 9.1566 36.1867 8.56288C36.8995 7.96917 37.7946 7.63835 38.7221 7.6258ZM24.1074 7.63896C24.6899 7.63867 25.2667 7.75312 25.805 7.97576C26.3432 8.1984 26.8324 8.52488 27.2444 8.93656C27.6565 9.34824 27.9835 9.83705 28.2067 10.3751C28.4298 10.9131 28.5448 11.4898 28.5451 12.0723C28.5454 12.6548 28.431 13.2317 28.2083 13.7699C27.9857 14.3082 27.6592 14.7973 27.2475 15.2094C26.8359 15.6215 26.3471 15.9484 25.809 16.1716C25.271 16.3948 24.6942 16.5098 24.1118 16.5101C22.9431 16.5004 21.8258 16.0286 21.004 15.1976C20.1803 14.3679 19.7187 13.2458 19.7201 12.0767C19.7181 10.9079 20.1789 9.78586 21.0018 8.95581C21.8224 8.1238 22.9389 7.65037 24.1074 7.63896Z" fill="#262626"/>
</svg>
