<svg width="205" height="237" viewBox="0 0 205 237" fill="none" xmlns="http://www.w3.org/2000/svg">
<g filter="url(#filter0_d_1571_1046)">
<path d="M129.174 42.7945L123.695 79.9564C123.286 82.6774 122.34 85.2382 120.78 87.4045C119.532 89.2621 118.588 91.4336 118.184 93.6876L110.779 130.833C110.742 135.114 109.628 139.23 107.516 142.949C102.272 152.557 91.037 159.778 77.3778 162.153C74.5223 162.673 71.5917 162.96 68.5861 163.012C68.0467 163.007 67.5844 163.003 67.045 162.999C66.0434 162.99 65.1188 162.983 64.1948 162.897C61.4994 162.718 58.8823 162.385 56.3436 161.896C51.959 161.002 47.8866 159.644 44.2027 157.9C43.9729 157.743 43.6653 157.662 43.4355 157.505C35.992 153.861 30.1812 148.518 26.9211 142.263C25.9353 140.386 25.1813 138.434 24.6592 136.405C24.1371 134.377 23.8468 132.273 23.8653 130.093L17.0933 92.8272C16.7273 90.5667 15.8206 88.4572 14.6043 86.5008C13.1596 84.2311 12.1798 81.6539 11.817 79.0042L6.9713 41.7544L21.3805 41.7992L68.0759 41.8853L82.5608 42.0864L129.174 42.7945Z" fill="#D6B7A6" stroke="#DC985A" stroke-width="0.492641" stroke-miterlimit="10" stroke-linecap="round" stroke-linejoin="round"/>
<path d="M41.2563 141.841C42.4335 148.39 34.2323 152.29 30.0376 147.194C28.818 145.627 27.6755 144.06 26.8425 142.341C25.8567 140.464 25.1028 138.512 24.5807 136.483C24.1343 134.611 23.8426 132.663 23.8592 130.717C23.8625 130.328 23.7881 130.016 23.7908 129.704L17.1682 92.9844C16.8022 90.7239 15.8954 88.6144 14.6792 86.658C13.2344 84.3883 12.2546 81.8112 11.8919 79.1615L7.98557 49.2368C7.47934 45.3404 10.4364 41.9405 14.3667 41.8961L17.2946 41.921C19.8373 41.9427 22.1362 43.4413 23.118 45.7849L24.2512 48.4412C24.4784 48.9101 24.6285 49.3785 24.7016 49.8461L41.2563 141.841Z" fill="#D6C5BB" stroke="#DC985A" stroke-width="0.492641" stroke-miterlimit="10" stroke-linecap="round" stroke-linejoin="round"/>
<path d="M129.174 42.7947L123.695 79.9566C123.286 82.6776 122.34 85.2383 120.78 87.4046C119.532 89.2622 118.589 91.4338 118.184 93.6878L110.779 130.833C110.742 135.114 109.628 139.23 107.516 142.949C103.211 150.852 94.8358 157.086 84.4048 160.422C76.8326 162.849 69.2589 156.401 70.1747 148.391L82.4838 42.0859L129.174 42.7947Z" fill="#C59A82" stroke="#DC985A" stroke-width="0.492641" stroke-miterlimit="10" stroke-linecap="round" stroke-linejoin="round"/>
<path d="M120.546 42.6434L115.805 74.5961C115.476 76.9286 114.61 79.1008 113.284 81.0356C112.66 81.9644 112.189 82.8945 111.795 83.9031C111.481 84.6788 111.242 85.533 111.081 86.3879L104.722 118.327C104.69 121.985 103.658 125.557 101.936 128.734C97.5535 136.637 88.4863 142.709 77.3711 144.95C74.129 145.623 70.6584 145.982 67.114 145.952C51.3957 145.818 37.9734 138.465 32.5132 128.143C30.7682 124.937 29.8741 121.348 29.9052 117.69L24.0905 85.6475C23.9437 84.79 23.7198 83.9319 23.4182 83.1509C23.0416 82.1357 22.5879 81.1199 21.9794 80.1806C20.6861 78.2235 19.9342 76.0376 19.5688 73.6992L15.4485 41.7488L67.9998 41.8848L100.898 42.3983L120.546 42.6434Z" fill="#623011" stroke="#DC985A" stroke-width="0.492641" stroke-miterlimit="10" stroke-linecap="round" stroke-linejoin="round"/>
<path d="M120.546 42.6434L115.803 74.7518C115.475 77.0843 114.532 79.2558 113.283 81.1913C113.283 81.1913 113.283 81.1912 113.282 81.2691C112.033 83.2045 110.399 84.981 108.386 86.1315C101.339 90.1971 93.1461 93.1632 84.1165 94.7989C78.7914 95.7655 73.3162 96.2638 67.6144 96.2153C52.4354 96.0861 38.5217 92.1534 27.5571 85.7549C25.4867 84.5696 23.6514 82.9193 22.4358 80.8851C22.2837 80.6502 22.1315 80.4154 21.9794 80.1806C20.6855 78.3014 20.0106 76.116 19.7216 73.8562L15.4485 41.7488L67.9998 41.8848L100.898 42.3983L120.546 42.6434Z" fill="#A15D35" stroke="#DC985A" stroke-width="0.492641" stroke-miterlimit="10" stroke-linecap="round" stroke-linejoin="round"/>
<path d="M120.545 42.6441L115.802 74.7525C115.474 77.085 114.531 79.2565 113.281 81.192C112.735 82.0436 112.265 82.9737 111.871 83.9823C111.556 84.758 111.317 85.6122 111.156 86.4671L104.797 118.406C104.766 122.064 103.733 125.636 102.011 128.813C99.3503 133.617 94.9997 137.783 89.4262 140.772C84.317 143.531 78.1894 139.197 79.0096 133.366L90.0373 50.8692L100.974 42.3997L120.545 42.6441Z" fill="#29150D" stroke="#DC985A" stroke-width="0.492641" stroke-miterlimit="10" stroke-linecap="round" stroke-linejoin="round"/>
<path d="M120.545 42.6439L115.802 74.7523C115.474 77.0848 114.531 79.2563 113.281 81.1918C113.281 81.1918 113.281 81.1917 113.281 81.2696C112.031 83.205 110.398 84.9815 108.385 86.132C101.338 90.1976 93.1448 93.1637 84.1153 94.7994L89.9602 50.8683L100.897 42.3988L120.545 42.6439Z" fill="#623011" stroke="#DC985A" stroke-width="0.492641" stroke-miterlimit="10" stroke-linecap="round" stroke-linejoin="round"/>
<path d="M129.597 38.3618C129.428 58.2101 103.555 74.1811 71.1076 74.9947C69.9518 74.9849 68.8725 75.0535 67.7167 75.0437C33.7373 74.7545 6.29491 57.8627 6.46915 37.3917C6.64405 16.8428 34.3693 0.49845 68.3487 0.787659C100.171 1.05851 126.244 15.8369 129.321 34.623C129.542 35.7926 129.608 37.0386 129.597 38.3618Z" fill="#FFFAF4" stroke="#DC985A" stroke-width="0.492641" stroke-miterlimit="10" stroke-linecap="round" stroke-linejoin="round"/>
<path d="M129.597 38.3617C129.434 57.4316 105.415 72.9513 74.7308 74.7919C72.6491 74.9298 70.8138 73.2795 70.8317 71.1779C70.8317 71.1779 70.8317 71.1779 70.8324 71.1001C70.9947 52.0302 95.0143 36.5105 125.698 34.6699C127.78 34.5319 129.615 36.1822 129.597 38.3617Z" fill="#D6C5BB" stroke="#DC985A" stroke-width="0.492641" stroke-miterlimit="10" stroke-linecap="round" stroke-linejoin="round"/>
<path d="M119.272 38.273C119.249 40.9973 118.687 43.6392 117.51 46.1201C116.96 47.3609 116.256 48.6004 115.475 49.8392C108.608 59.9781 93.0573 67.3185 74.399 68.5609C72.2403 68.6982 70.0052 68.757 67.7707 68.738C46.2735 68.5551 27.9266 60.3811 20.3953 48.9521C20.2432 48.7173 20.1675 48.5609 20.0154 48.3261C19.4076 47.309 18.7998 46.2919 18.4238 45.1989C17.3663 42.6989 16.7724 40.0472 16.7956 37.323C16.9407 20.2768 40.0197 6.6173 68.2974 6.85798C68.9908 6.86389 69.6843 6.86979 70.3777 6.87569C90.6381 7.51519 107.756 15.2894 115.216 26.0173C117.88 29.8542 119.309 33.992 119.272 38.273Z" fill="#A15D35" stroke="#DC985A" stroke-width="0.492641" stroke-miterlimit="10" stroke-linecap="round" stroke-linejoin="round"/>
<path d="M119.272 38.2726C119.249 40.9968 118.687 43.6387 117.51 46.1196C116.96 47.3604 116.256 48.5999 115.475 49.8387C109.076 59.281 95.1464 66.2461 78.2544 68.204C75.7861 68.4944 73.2527 67.3831 71.8837 65.2697C71.7309 65.1127 71.6558 64.8785 71.5031 64.7215C70.8946 63.7822 70.3632 62.8436 69.9865 61.8285C69.0048 59.4848 68.4859 57.0673 68.5078 54.4987C68.641 38.8536 89.4763 26.2648 115.292 26.0953C117.88 29.8538 119.308 33.9916 119.272 38.2726Z" fill="#623011" stroke="#DC985A" stroke-width="0.492641" stroke-miterlimit="10" stroke-linecap="round" stroke-linejoin="round"/>
<path d="M115.773 33.0294C115.751 35.5201 115.191 38.0063 114.169 40.3329C113.62 41.4959 112.994 42.6582 112.214 43.7413C105.035 54.2667 87.8663 61.5935 67.8331 61.4229C47.7999 61.2524 30.6812 53.6339 23.7596 42.9885C23.6069 42.8315 23.5318 42.5973 23.379 42.4403C22.7706 41.501 22.3169 40.4852 21.8625 39.5473C20.8807 37.2036 20.3619 34.7861 20.3838 32.2175C20.5189 16.3388 41.972 3.59963 68.3233 3.82391C68.9397 3.82916 69.6332 3.83506 70.2496 3.84031C95.7474 4.75791 115.904 17.5399 115.773 33.0294Z" fill="#D09461" stroke="#DC985A" stroke-width="0.492641" stroke-miterlimit="10" stroke-linecap="round" stroke-linejoin="round"/>
<path d="M82.2862 19.9775C82.2776 20.9894 82.0385 21.9214 81.6453 22.8522C81.4102 23.3172 81.175 23.7823 80.8628 24.2467C78.0532 28.4263 71.1705 31.3257 63.2343 31.2581C55.2981 31.1906 48.4657 28.1745 45.7277 23.9477C45.6513 23.8692 45.652 23.7913 45.5756 23.7128C45.3477 23.3217 45.1199 22.9305 44.9691 22.54C44.5918 21.6027 44.3686 20.6667 44.3772 19.6549C44.4309 13.3501 52.9502 8.28503 63.4291 8.37422C63.6602 8.37619 63.9684 8.37881 64.1996 8.38078C74.2913 8.7002 82.3385 13.8284 82.2862 19.9775Z" fill="#A15D35" stroke="#DC985A" stroke-width="0.492641" stroke-miterlimit="10" stroke-linecap="round" stroke-linejoin="round"/>
<path d="M92.9314 45.8337C92.9261 46.4564 92.7667 47.0777 92.5309 47.6206C92.3742 47.9306 92.2181 48.1628 92.0613 48.4729C90.2667 51.1042 86.013 52.9363 81.0047 52.8936C75.9964 52.851 71.7745 50.9468 70.0248 48.2853C70.0255 48.2075 69.9484 48.2068 69.9491 48.129C69.797 47.8942 69.6449 47.6593 69.5698 47.4252C69.3433 46.8784 69.1945 46.2544 69.1998 45.6317C69.2336 41.662 74.5772 38.516 81.1266 38.5717C81.2807 38.573 81.4348 38.5743 81.5889 38.5756C87.9828 38.7857 92.9646 41.9418 92.9314 45.8337Z" fill="#A15D35" stroke="#DC985A" stroke-width="0.492641" stroke-miterlimit="10" stroke-linecap="round" stroke-linejoin="round"/>
<path d="M103.407 19.3778C97.3452 16.3682 89.8474 19.1067 89.8474 19.1067C89.8474 19.1067 94.6597 15.022 88.5208 12.0118C82.459 9.00216 62.497 18.5626 77.5367 26.0077C92.6528 33.5314 109.469 22.3874 103.407 19.3778Z" fill="#FFFAF4" stroke="#DC985A" stroke-width="0.492641" stroke-miterlimit="10" stroke-linecap="round" stroke-linejoin="round"/>
<path d="M93.5862 32.4496C81.99 27.8361 72.1122 29.5424 70.4909 29.9178C71.0375 29.0662 73.7023 23.7956 64.2741 17.955C62.5876 16.9287 59.6596 16.9038 57.9559 17.9013C52.9988 20.8949 45.545 27.5259 60.8908 35.2072L60.9679 35.2079C60.9679 35.2079 61.045 35.2085 61.0443 35.2863C76.545 42.8911 88.6797 38.5574 94.02 35.8005C95.8002 34.8816 95.5829 33.245 93.5862 32.4496Z" fill="#FFFAF4" stroke="#DC985A" stroke-width="0.492641" stroke-miterlimit="10" stroke-linecap="round" stroke-linejoin="round"/>
<path d="M82.2339 44.4194C66.801 37.905 55.6958 38.9781 53.9209 39.2744C54.2378 38.2651 55.675 32.3613 42.4872 24.6205C40.187 23.2777 36.5682 22.9355 34.9409 24.0114C30.6035 26.6211 25.0832 32.4123 37.7257 40.8491C38.1854 41.1643 38.645 41.4796 39.1817 41.7955C42.0898 44.1556 40.2924 47.0983 40.2924 47.0983C40.2924 47.0983 46.0818 45.9021 50.7687 47.4988C51.0756 47.6571 51.4602 47.7382 51.767 47.8965C51.9205 47.9757 52.0746 47.977 52.228 48.0561C68.8206 54.1133 79.328 50.8556 83.9716 48.482C85.676 47.4067 84.9214 45.5321 82.2339 44.4194Z" fill="#FFFAF4" stroke="#DC985A" stroke-width="0.492641" stroke-miterlimit="10" stroke-linecap="round" stroke-linejoin="round"/>
</g>
<g filter="url(#filter1_d_1571_1046)">
<path d="M199.009 147.163C199.009 147.163 188.704 194.807 176.083 212.375C176.016 212.492 175.948 212.608 175.885 212.665C175.294 213.473 174.648 214.217 174.065 214.905C167.7 221.751 155.633 226.054 141.964 225.477C141.488 225.447 140.951 225.412 140.415 225.378C130.64 224.749 121.854 221.766 115.494 217.367C112.57 215.365 110.203 213.096 108.387 210.622C107.837 209.861 107.355 208.984 106.817 208.042C106.761 207.978 106.709 207.854 106.654 207.79C101.576 198.334 97.9841 181.597 95.6792 167.181C93.3303 152.52 92.2646 140.238 92.2646 140.238L199.013 147.102L199.009 147.163Z" fill="#E8DFD9" stroke="#DC985A" stroke-width="0.381856" stroke-miterlimit="10" stroke-linecap="round" stroke-linejoin="round"/>
<path d="M106.868 208.166C107.406 209.108 107.892 209.925 108.438 210.746C107.833 209.921 107.291 209.04 106.868 208.166Z" fill="#FFFAF4" stroke="#DC985A" stroke-width="0.381856" stroke-miterlimit="10" stroke-linecap="round" stroke-linejoin="round"/>
<path d="M175.88 212.724C175.353 213.477 174.706 214.221 174.06 214.965C174.643 214.277 175.289 213.533 175.88 212.724Z" fill="#FFFAF4" stroke="#DC985A" stroke-width="0.381856" stroke-miterlimit="10" stroke-linecap="round" stroke-linejoin="round"/>
<path d="M199.009 147.163C199.009 147.163 188.704 194.807 176.083 212.376C176.016 212.492 175.948 212.609 175.885 212.665C175.294 213.474 174.648 214.218 174.065 214.906C170.143 219.128 164.069 222.365 156.774 224.133C151.305 225.413 146.826 219.684 149.483 214.655C159.443 195.647 161.818 168.955 161.818 168.955C161.818 168.955 148.412 166.159 152.659 154.098C154.422 149.012 156.321 146.474 158.781 144.516L199.013 147.103L199.009 147.163Z" fill="#DCCBBF" stroke="#DC985A" stroke-width="0.381856" stroke-miterlimit="10" stroke-linecap="round" stroke-linejoin="round"/>
<path d="M199.078 146.078C197.94 163.78 175.308 176.956 147.746 176.514C146.371 176.486 144.996 176.458 143.566 176.366C121.036 174.917 102.35 164.889 95.343 151.923C93.1471 147.913 92.1068 143.614 92.3895 139.218C93.4851 122.179 114.354 109.433 140.428 108.813C142.888 108.729 145.335 108.826 147.898 108.991C163.633 110.002 177.484 115.186 186.817 122.678C194.957 129.187 199.636 137.408 199.078 146.078Z" fill="#FFFAF4" stroke="#DC985A" stroke-width="0.381856" stroke-miterlimit="10" stroke-linecap="round" stroke-linejoin="round"/>
<path d="M199.078 146.078C198.014 162.636 178.237 175.149 153.197 176.44C149.534 176.628 145.912 175.247 143.393 172.545C137.956 166.815 135.036 160.097 135.485 153.113C136.55 136.555 156.327 124.042 181.367 122.75C185.03 122.563 188.651 123.944 191.171 126.645C196.608 132.376 199.527 139.093 199.078 146.078Z" fill="#E8DFD9" stroke="#DC985A" stroke-width="0.381856" stroke-miterlimit="10" stroke-linecap="round" stroke-linejoin="round"/>
<path d="M188.23 145.382C188.103 147.369 187.617 149.333 186.842 151.157C183.383 159.338 173.818 165.676 161.443 168.266C156.041 169.43 150.146 169.898 144.007 169.503C127.557 168.445 113.691 161.628 107.212 152.566C105.674 150.412 104.562 148.164 103.934 145.826C103.399 143.917 103.165 141.967 103.297 139.92C103.99 129.143 114.599 120.514 129.417 117.174C134.945 115.897 141.083 115.385 147.52 115.799C154.374 116.24 160.746 117.677 166.351 119.851C179.952 125.2 188.904 134.905 188.23 145.382Z" fill="#E8DFD9" stroke="#DC985A" stroke-width="0.381856" stroke-miterlimit="10" stroke-linecap="round" stroke-linejoin="round"/>
<path d="M133.332 129.82C133.204 131.807 132.719 133.771 131.943 135.595C129.189 142.129 122.44 147.499 113.553 150.737C109.571 152.174 105.101 150.012 103.926 145.946L103.93 145.886C103.395 143.977 103.161 142.027 103.293 139.98C103.881 130.828 111.671 123.228 123.008 119.12C127.054 117.627 131.519 119.849 132.686 124.035C133.23 125.823 133.459 127.833 133.332 129.82Z" fill="#DCCBBF" stroke="#DC985A" stroke-width="0.381856" stroke-miterlimit="10" stroke-linecap="round" stroke-linejoin="round"/>
<path d="M188.23 145.38C188.103 147.367 187.617 149.331 186.842 151.156C183.383 159.337 173.818 165.675 161.443 168.265C150.406 163.988 142.428 156.825 140.201 148.64C139.666 146.732 139.432 144.782 139.564 142.735C140.148 133.643 147.819 126.035 159.156 121.927C163.694 120.224 168.816 120.613 173.027 123.061C182.787 128.585 188.788 136.71 188.23 145.38Z" fill="#FFFAF4" stroke="#DC985A" stroke-width="0.381856" stroke-miterlimit="10" stroke-linecap="round" stroke-linejoin="round"/>
<path d="M183.727 144.668C186.412 148.528 186.075 153.767 182.922 157.192C175.387 165.474 160.636 170.571 144.066 169.506C127.497 168.44 113.52 161.495 107.107 152.317C104.423 148.456 104.756 143.278 107.913 139.793C115.448 131.511 130.199 126.413 146.769 127.479C163.278 128.54 177.256 135.485 183.727 144.668Z" fill="#D17945" stroke="#DC985A" stroke-width="0.381856" stroke-miterlimit="10" stroke-linecap="round" stroke-linejoin="round"/>
<path d="M175.097 148.587C177.18 151.562 176.916 155.657 174.47 158.341C168.549 164.792 157.041 168.768 144.108 167.936C131.174 167.105 120.271 161.688 115.225 154.531C113.142 151.556 113.405 147.462 115.852 144.777C121.773 138.326 133.28 134.35 146.214 135.182C159.147 136.014 170.055 141.37 175.097 148.587Z" fill="#E8A56C" stroke="#DC985A" stroke-width="0.381856" stroke-miterlimit="10" stroke-linecap="round" stroke-linejoin="round"/>
<path d="M114.695 210.242C115.117 212.99 111.719 214.646 109.876 212.592C109.314 212.012 108.817 211.375 108.379 210.743C107.829 209.982 107.347 209.104 106.809 208.163C106.753 208.099 106.701 207.975 106.646 207.911C103.07 201.151 100.212 190.689 98.0286 179.968C97.3916 176.844 101.565 175.238 103.127 177.938C107.768 185.794 112.63 196.748 114.695 210.242Z" fill="#FFFAF4" stroke="#DC985A" stroke-width="0.381856" stroke-miterlimit="10" stroke-linecap="round" stroke-linejoin="round"/>
<path d="M171.419 142.488C167.386 140.052 162.069 141.765 162.069 141.765C162.069 141.765 165.541 138.966 161.449 136.526C157.416 134.09 143.254 140.253 153.28 146.279C163.426 152.312 175.456 144.863 171.419 142.488Z" fill="#FFFAF4" stroke="#DC985A" stroke-width="0.381856" stroke-miterlimit="10" stroke-linecap="round" stroke-linejoin="round"/>
<path d="M164.073 151.566C156.239 147.737 149.419 148.629 148.267 148.857C148.667 148.217 150.763 144.483 144.474 139.907C143.388 139.111 141.301 138.977 140.123 139.627C136.586 141.576 131.146 146.124 141.399 152.345L141.459 152.349L141.519 152.353C151.899 158.462 160.448 155.807 164.216 153.994C165.51 153.412 165.405 152.256 164.073 151.566Z" fill="#FFFAF4" stroke="#DC985A" stroke-width="0.381856" stroke-miterlimit="10" stroke-linecap="round" stroke-linejoin="round"/>
<path d="M155.763 159.799C145.392 154.477 137.705 154.889 136.442 154.989C136.726 154.282 137.955 150.068 129.132 143.939C127.585 142.872 125.153 142.534 123.974 143.184C120.87 144.919 116.784 148.889 125.218 155.477C125.501 155.737 125.847 155.94 126.189 156.204C128.107 158.021 126.716 160.108 126.716 160.108C126.716 160.108 130.768 159.461 133.913 160.812C134.143 160.948 134.378 161.023 134.553 161.095C134.668 161.163 134.728 161.167 134.843 161.235C146.008 166.306 153.379 164.301 156.709 162.762C158.007 162.12 157.556 160.761 155.763 159.799Z" fill="#FFFAF4" stroke="#DC985A" stroke-width="0.381856" stroke-miterlimit="10" stroke-linecap="round" stroke-linejoin="round"/>
<path d="M198.202 189.493C194.964 206.334 184.562 210.804 177.786 216.596C176.774 217.438 175.818 218.344 174.978 219.318C173.229 221.382 169.818 220.437 169.393 217.749C169.301 217.32 169.276 216.774 169.251 216.229C168.783 209.548 177.87 205.054 177.87 205.054C177.87 205.054 190.383 196.608 189.701 185.802C189.227 178.275 182.992 179.386 180.619 179.052C179.729 178.934 178.979 179.43 178.571 180.19C178.088 181.186 176.922 182.562 173.772 183.146C173.165 183.288 172.565 183.31 172.088 183.279C168.504 183.17 168.277 180.193 168.277 180.193C168.277 180.193 167.295 173.116 174.311 170.121C178.988 168.124 189.893 167.919 195.403 174.38C198.186 177.642 199.552 182.446 198.202 189.493Z" fill="#FFFAF4" stroke="#DC985A" stroke-width="0.381856" stroke-miterlimit="10" stroke-linecap="round" stroke-linejoin="round"/>
<path d="M189.701 185.802C189.227 178.275 182.992 179.385 180.619 179.051C179.729 178.934 178.979 179.429 178.571 180.189C178.088 181.186 176.922 182.562 173.772 183.145C172.926 183.272 172.258 182.504 172.491 181.673C173.111 179.475 174.785 175.774 178.869 175.553C184.641 175.138 189.021 175.904 189.701 185.802Z" fill="#E8DFD9" stroke="#DC985A" stroke-width="0.381856" stroke-miterlimit="10" stroke-linecap="round" stroke-linejoin="round"/>
<path d="M198.202 189.493C196.292 199.649 191.741 205.281 186.925 209.445C184.834 211.245 181.961 208.461 183.657 206.273C188.097 200.512 193.784 193.985 195.418 189.979C196.276 187.798 196.714 185.649 196.782 183.658C196.863 182.394 198.655 182.449 198.697 183.661C198.823 185.422 198.64 187.345 198.202 189.493Z" fill="#E8DFD9" stroke="#DC985A" stroke-width="0.381856" stroke-miterlimit="10" stroke-linecap="round" stroke-linejoin="round"/>
</g>
<defs>
<filter id="filter0_d_1571_1046" x="-0.218854" y="0.263672" width="135.754" height="174.506" filterUnits="userSpaceOnUse" color-interpolation-filters="sRGB">
<feFlood flood-opacity="0" result="BackgroundImageFix"/>
<feColorMatrix in="SourceAlpha" type="matrix" values="0 0 0 0 0 0 0 0 0 0 0 0 0 0 0 0 0 0 127 0" result="hardAlpha"/>
<feOffset dy="5.62315"/>
<feGaussianBlur stdDeviation="2.81158"/>
<feComposite in2="hardAlpha" operator="out"/>
<feColorMatrix type="matrix" values="0 0 0 0 0 0 0 0 0 0 0 0 0 0 0 0 0 0 0.25 0"/>
<feBlend mode="normal" in2="BackgroundImageFix" result="effect1_dropShadow_1571_1046"/>
<feBlend mode="normal" in="SourceGraphic" in2="effect1_dropShadow_1571_1046" result="shape"/>
</filter>
<filter id="filter1_d_1571_1046" x="81.3876" y="105.557" width="127.652" height="134.637" filterUnits="userSpaceOnUse" color-interpolation-filters="sRGB">
<feFlood flood-opacity="0" result="BackgroundImageFix"/>
<feColorMatrix in="SourceAlpha" type="matrix" values="0 0 0 0 0 0 0 0 0 0 0 0 0 0 0 0 0 0 127 0" result="hardAlpha"/>
<feOffset dy="5.62315"/>
<feGaussianBlur stdDeviation="2.81158"/>
<feComposite in2="hardAlpha" operator="out"/>
<feColorMatrix type="matrix" values="0 0 0 0 0 0 0 0 0 0 0 0 0 0 0 0 0 0 0.25 0"/>
<feBlend mode="normal" in2="BackgroundImageFix" result="effect1_dropShadow_1571_1046"/>
<feBlend mode="normal" in="SourceGraphic" in2="effect1_dropShadow_1571_1046" result="shape"/>
</filter>
</defs>
</svg>
