<svg width="53" height="31" viewBox="0 0 53 31" fill="none" xmlns="http://www.w3.org/2000/svg">
<path d="M50.3804 7.46944C48.0784 3.12791 43.574 0.424848 38.6757 0.441483H1.61417C1.36388 0.442516 1.11943 0.518458 0.911266 0.659845C0.703103 0.801233 0.540435 1.00181 0.44353 1.2366C0.348042 1.46988 0.323173 1.72684 0.372108 1.97459C0.421042 2.22234 0.541553 2.44958 0.718205 2.62722L8.79169 10.778C9.50453 11.4999 10.4757 11.9041 11.4861 11.9041H37.6129C39.4752 11.8842 40.9973 13.3846 41.0169 15.2526C41.0366 17.1206 39.5438 18.651 37.6816 18.6693H19.6691C19.4187 18.6694 19.1738 18.7445 18.965 18.8853C18.7562 19.0261 18.5929 19.2264 18.4952 19.461C18.3988 19.6946 18.3733 19.9521 18.422 20.2005C18.4706 20.449 18.5912 20.6769 18.7683 20.855L26.8467 29.0124C27.564 29.734 28.5324 30.1381 29.5411 30.1369H37.6881C48.2877 30.1369 56.3023 18.7591 50.3804 7.46445" fill="#FF3008"/>
</svg>
