<svg width="89" height="89" viewBox="0 0 89 89" fill="none" xmlns="http://www.w3.org/2000/svg">
<path d="M44.6768 85.5432C67.3222 85.5432 85.6799 67.1855 85.6799 44.5401C85.6799 21.8948 67.3222 3.53711 44.6768 3.53711C22.0315 3.53711 3.67383 21.8948 3.67383 44.5401C3.67383 67.1855 22.0315 85.5432 44.6768 85.5432Z" stroke="#532A10" stroke-width="3" stroke-miterlimit="10" stroke-linecap="round" stroke-linejoin="round"/>
<path d="M47.8404 19.252C48.8752 19.5753 50.2979 20.0927 51.8501 20.9335C59.999 25.3313 64.5909 34.903 65.1729 43.6339C65.8843 55.7925 58.6409 64.006 56.9593 65.6229C53.7257 68.7272 50.298 69.568 50.298 69.568C49.5866 69.7621 49.0045 69.8267 48.6164 69.8267C53.2729 62.5832 53.5963 57.2153 53.0143 53.6583C51.7855 46.4148 46.6116 45.7034 44.736 36.2611C44.2833 33.9975 43.1192 27.3362 46.5469 21.1922C46.9996 20.3514 47.517 19.7047 47.8404 19.252Z" stroke="#532A10" stroke-width="3" stroke-miterlimit="10" stroke-linecap="round" stroke-linejoin="round"/>
<path d="M40.6615 19.0566C36.199 31.28 37.6218 38.5881 40.0794 43.1152C42.2783 47.1897 45.2533 48.8065 46.4821 53.5277C48.099 59.607 45.4473 65.751 42.7957 70.0841C40.2087 69.3727 35.811 67.8206 31.9952 64.0695C22.5529 54.8858 21.5181 37.4239 29.7963 26.8821C33.3533 22.4197 37.8159 20.1561 40.6615 19.0566Z" stroke="#532A10" stroke-width="3" stroke-miterlimit="10" stroke-linecap="round" stroke-linejoin="round"/>
</svg>
