<svg width="120" height="29" viewBox="0 0 120 29" fill="none" xmlns="http://www.w3.org/2000/svg">
<path d="M16.5057 6.36052C16.8172 6.58777 17.2372 6.92474 17.6638 7.38541C19.9053 9.79851 20.3571 13.5473 19.5546 16.5544C18.4036 20.7306 15.0247 22.6684 14.2735 23.0207C12.8294 23.6963 11.5788 23.5875 11.5788 23.5875C11.3171 23.5715 11.1136 23.5267 10.9829 23.4823C13.3796 21.5753 14.1024 19.8045 14.3132 18.5399C14.7278 15.9599 13.0666 15.1286 13.5149 11.734C13.6213 10.9199 13.9911 8.54324 15.8482 6.86603C16.0968 6.63465 16.345 6.47601 16.5057 6.36052Z" stroke="#532A10" stroke-miterlimit="10" stroke-linecap="round" stroke-linejoin="round"/>
<path d="M11.3816 5.15273C8.4807 8.75905 8.12407 11.3831 8.43401 13.1888C8.70859 14.8125 9.52562 15.6973 9.39952 17.4279C9.24878 19.6603 7.65305 21.4262 6.26444 22.5823C5.47455 22.0468 4.17094 21.0211 3.31484 19.3214C1.18508 15.1486 2.83365 9.14925 6.82731 6.54564C8.53565 5.44954 10.2974 5.19757 11.3816 5.15273Z" stroke="#532A10" stroke-miterlimit="10" stroke-linecap="round" stroke-linejoin="round"/>
<path d="M64.9744 6.36442C65.286 6.59168 65.706 6.92864 66.1326 7.38932C68.374 9.80242 68.8258 13.5512 68.0233 16.5583C66.8724 20.7345 63.4935 22.6723 62.7423 23.0246C61.2982 23.7002 60.0476 23.5914 60.0476 23.5914C59.7858 23.5754 59.5824 23.5306 59.4517 23.4862C61.8484 21.5792 62.5712 19.8084 62.782 18.5438C63.1965 15.9638 61.5354 15.1325 61.9836 11.7379C62.09 10.9238 62.4598 8.54715 64.3169 6.86993C64.5655 6.63855 64.8137 6.47991 64.9744 6.36442Z" stroke="#532A10" stroke-miterlimit="10" stroke-linecap="round" stroke-linejoin="round"/>
<path d="M59.8484 5.15273C56.9475 8.75905 56.5909 11.3831 56.9008 13.1888C57.1754 14.8125 57.9924 15.6973 57.8663 17.4279C57.7156 19.6603 56.1198 21.4262 54.7312 22.5823C53.9413 22.0468 52.6377 21.0211 51.7816 19.3214C49.6519 15.1486 51.3004 9.14925 55.2941 6.54564C57.0024 5.44954 58.7642 5.19757 59.8484 5.15273Z" stroke="#532A10" stroke-miterlimit="10" stroke-linecap="round" stroke-linejoin="round"/>
<path d="M113.439 6.36052C113.751 6.58777 114.171 6.92474 114.597 7.38541C116.839 9.79851 117.291 13.5473 116.488 16.5544C115.337 20.7306 111.958 22.6684 111.207 23.0207C109.763 23.6963 108.512 23.5875 108.512 23.5875C108.251 23.5715 108.047 23.5267 107.917 23.4823C110.313 21.5753 111.036 19.8045 111.247 18.5399C111.661 15.9599 110 15.1286 110.448 11.734C110.555 10.9199 110.925 8.54324 112.782 6.86603C113.03 6.63465 113.279 6.47601 113.439 6.36052Z" stroke="#532A10" stroke-miterlimit="10" stroke-linecap="round" stroke-linejoin="round"/>
<path d="M108.315 5.15273C105.414 8.75905 105.058 11.3831 105.368 13.1888C105.642 14.8125 106.459 15.6973 106.333 17.4279C106.182 19.6603 104.587 21.4262 103.198 22.5823C102.408 22.0468 101.105 21.0211 100.248 19.3214C98.1187 15.1486 99.7672 9.14925 103.761 6.54564C105.469 5.44954 107.231 5.19757 108.315 5.15273Z" stroke="#532A10" stroke-miterlimit="10" stroke-linecap="round" stroke-linejoin="round"/>
</svg>
