<svg width="198" height="256" viewBox="0 0 198 256" fill="none" xmlns="http://www.w3.org/2000/svg">
<g filter="url(#filter0_d_1571_1012)">
<path d="M99.2086 44.3737L110.121 39.7187C113.579 38.2409 117.551 39.5597 119.517 42.7729L139.859 76.0793C141.522 78.822 140.804 82.4452 138.11 84.1707L135.493 85.8979C133.568 87.1746 130.969 86.5802 129.682 84.6191L112.208 56.7887L103.221 60.1668L99.2086 44.3737Z" fill="#9D4F34" stroke="#DC985A" stroke-width="0.501321" stroke-miterlimit="10" stroke-linecap="round" stroke-linejoin="round"/>
<path d="M68.4464 158.377C99.9117 159.015 125.524 146.158 125.653 129.661C125.783 113.163 100.38 99.2726 68.9144 98.635C37.4491 97.9974 11.8366 110.854 11.7074 127.351C11.5782 143.849 36.9811 157.739 68.4464 158.377Z" fill="#9D4F34" stroke="#DC985A" stroke-width="0.501321" stroke-miterlimit="10" stroke-linecap="round" stroke-linejoin="round"/>
<path d="M132.076 101.772C131.844 131.333 107.445 146.705 76.1863 148.084C73.9643 148.194 71.6664 148.225 69.3691 148.178C34.9097 147.48 7.1613 130.896 7.40924 99.2455C7.65717 67.5946 35.884 32.873 70.2669 33.5698C82.8255 33.8243 94.5047 38.7823 104.248 46.4874C121.146 59.8327 132.233 81.6515 132.076 101.772Z" fill="#D6C5BB" stroke="#DC985A" stroke-width="0.501321" stroke-miterlimit="10" stroke-linecap="round" stroke-linejoin="round"/>
<path d="M121.675 99.9357C121.48 124.854 100.624 137.666 74.1174 138.522C72.5853 138.569 71.0531 138.615 69.5216 138.584C40.8819 138.004 17.7069 124.222 17.9137 97.833C17.9288 95.8983 18.0971 93.9668 18.342 92.0368C26.9893 102.738 46.6884 110.49 69.5848 110.954C70.8866 110.981 72.1885 111.007 73.5674 110.958C94.9384 110.617 113.143 103.787 121.339 93.8918C121.553 95.9085 121.691 97.9237 121.675 99.9357Z" fill="#9D4F34" stroke="#DC985A" stroke-width="0.501321" stroke-miterlimit="10" stroke-linecap="round" stroke-linejoin="round"/>
<path d="M132.076 101.772C131.873 127.697 113.068 142.718 87.3005 146.994C80.7817 148.101 74.6148 143.409 73.5943 136.81C71.3398 121.516 73.0102 103.826 79.2745 86.3062C83.3462 74.9337 88.9403 64.7531 95.4407 56.2162C100.006 50.2717 108.816 49.9858 113.826 55.7374C125.289 68.7404 132.202 85.7533 132.076 101.772Z" fill="#D6B7A6" stroke="#DC985A" stroke-width="0.501321" stroke-miterlimit="10" stroke-linecap="round" stroke-linejoin="round"/>
<path d="M121.578 92.5818C121.494 103.338 100.214 111.653 73.4058 111.884C72.1805 111.859 71.0313 111.913 69.8061 111.888C41.3196 111.311 18.2644 101.788 18.3523 90.5673C18.4402 79.3464 41.5613 70.6819 70.0477 71.2592C75.4081 71.3678 80.4597 71.7798 85.2792 72.4967C106.395 75.4013 121.65 83.4503 121.578 92.5818Z" fill="#29150D" stroke="#DC985A" stroke-width="0.501321" stroke-miterlimit="10" stroke-linecap="round" stroke-linejoin="round"/>
<path d="M121.674 99.9364C121.479 124.855 100.623 137.667 74.1168 138.523C73.9679 137.978 73.8196 137.356 73.7473 136.813C72.5851 128.74 72.5005 119.992 73.5669 110.958C94.9378 110.617 113.143 103.788 121.339 93.8925C121.553 95.9092 121.69 97.9244 121.674 99.9364Z" fill="#29150D" stroke="#DC985A" stroke-width="0.501321" stroke-miterlimit="10" stroke-linecap="round" stroke-linejoin="round"/>
<path d="M121.579 92.5812C121.495 103.338 100.214 111.653 73.4064 111.883C74.3908 103.544 76.2965 94.9143 79.4275 86.3091C81.1504 81.468 83.1777 76.8651 85.3564 72.4976C106.396 75.4007 121.65 83.4496 121.579 92.5812Z" fill="#623011" stroke="#DC985A" stroke-width="0.501321" stroke-miterlimit="10" stroke-linecap="round" stroke-linejoin="round"/>
<path d="M115.422 57.3946C112.614 63.8392 106.584 71.0698 93.6088 75.0638C86.9297 77.0956 78.4188 78.3163 67.6215 78.0975C46.2566 77.6645 29.4199 66.2554 24.3949 62.4384C23.4809 61.8007 23.025 61.3271 22.8725 61.2466C20.5138 59.2639 20.1582 55.7738 22.0914 53.4136C24.0246 51.0534 27.4736 50.7363 29.8323 52.7191C29.9083 52.798 33.9414 56.1305 40.5015 59.5141C40.654 59.5946 40.8066 59.6751 40.8825 59.754C40.9585 59.833 41.1117 59.8361 41.1877 59.915C47.9769 63.3807 57.2178 66.7413 67.6322 66.9524C87.8484 67.362 101.137 62.3682 105.195 52.8531C106.366 50.0131 109.669 48.7643 112.416 50.0583C115.317 51.278 116.67 54.5562 115.422 57.3946Z" fill="#29150D" stroke="#DC985A" stroke-width="0.501321" stroke-miterlimit="10" stroke-linecap="round" stroke-linejoin="round"/>
<path d="M115.342 57.6252C113.002 62.9957 108.361 68.8613 99.2916 72.9344C95.8329 74.4897 91.998 75.186 88.1686 75.1858C87.6326 75.1749 87.0199 75.1625 86.4839 75.1516C66.3443 74.7435 48.8555 68.352 40.5006 59.4367C40.6531 59.5172 40.8057 59.5977 40.8816 59.6766C47.6709 63.1423 57.0637 66.6608 67.6313 66.8749C87.8475 67.2846 101.137 62.2908 105.194 52.7757C106.442 49.8598 109.975 48.5383 112.873 50.145C115.542 51.5922 116.512 54.94 115.342 57.6252Z" fill="#9D4F34" stroke="#DC985A" stroke-width="0.501321" stroke-miterlimit="10" stroke-linecap="round" stroke-linejoin="round"/>
<path d="M41.2635 59.8388C37.1138 61.6122 31.9741 62.6691 26.4606 62.5573C26.384 62.5558 26.3074 62.5542 26.1542 62.5511C24.929 62.5263 23.784 62.0387 22.8711 61.2462C20.5124 59.2635 20.1568 55.7734 22.09 53.4132C24.0233 51.053 27.4722 50.7359 29.8309 52.7187C29.9069 52.7976 33.94 56.1301 40.5001 59.5137C40.6527 59.5942 40.8052 59.6747 40.8812 59.7536C41.0343 59.7567 41.1109 59.7583 41.2635 59.8388Z" fill="#623011" stroke="#DC985A" stroke-width="0.501321" stroke-miterlimit="10" stroke-linecap="round" stroke-linejoin="round"/>
<path d="M80.1678 30.9855L18.6768 29.7394L25.8473 43.1972L15.4013 47.0102C16.0121 47.2548 36.6662 60.2119 36.6662 60.2119C43.7478 65.4637 55.9734 69.1169 69.9103 69.3994C71.9779 69.4413 73.9695 69.4042 75.8851 69.2882C93.4308 68.4054 105.429 61.9923 109.712 53.0235L121.06 31.8142L80.1678 30.9855Z" fill="#D6B7A6" stroke="#DC985A" stroke-width="0.501321" stroke-miterlimit="10" stroke-linecap="round" stroke-linejoin="round"/>
<path d="M121.136 31.8139L109.788 53.0232C106.363 60.0744 98.1241 65.635 86.081 68.0224C81.0184 69.0034 76.4566 64.7315 77.0332 59.5575L80.1674 30.9837L121.136 31.8139Z" fill="#C59A82" stroke="#DC985A" stroke-width="0.501321" stroke-miterlimit="10" stroke-linecap="round" stroke-linejoin="round"/>
<path d="M70.1318 1.91224C41.339 1.32876 17.9743 11.7684 17.8694 25.1562C17.8573 26.7039 18.1521 28.1805 18.7532 29.6632C19.5038 31.6134 19.2565 33.8529 18.2464 35.69L14.2858 42.653C13.043 44.8723 14.8597 47.6181 17.3897 47.2824L30.271 45.4537C34.2584 44.8379 38.3917 45.1538 42.2886 46.3164C50.2344 48.7993 59.719 50.3847 69.8271 50.5895C98.6199 51.173 121.985 40.7334 122.09 27.3456C122.194 13.9578 98.9246 2.49572 70.1318 1.91224Z" fill="#D6C5BB" stroke="#DC985A" stroke-width="0.501321" stroke-miterlimit="10" stroke-linecap="round" stroke-linejoin="round"/>
<path d="M69.6983 8.32652C46.1893 7.85012 27.052 16.3631 26.9659 27.3519C26.9562 28.5901 27.1763 29.8329 27.6267 31.003C28.2265 32.6405 28.0595 34.4173 27.205 35.9479L23.9439 41.6093C22.9339 43.4464 24.4484 45.6443 26.5184 45.3766L37.0227 43.8867C40.3198 43.4118 43.6879 43.6348 46.8969 44.6286C53.3907 46.6952 61.1164 47.9353 69.3867 48.1029C92.8957 48.5793 112.033 40.0663 112.119 29.0775C112.205 18.0887 93.2839 8.80448 69.6983 8.32652Z" fill="#C59A82" stroke="#DC985A" stroke-width="0.501321" stroke-miterlimit="10" stroke-linecap="round" stroke-linejoin="round"/>
<path d="M26.6743 103.738C27.7088 108.557 30.1107 114.798 35.507 120.093C37.9393 122.464 41.9395 120.223 41.2763 116.882C40.3202 111.831 37.9207 105.281 32.2917 100.369C29.7816 98.1506 26.0106 100.474 26.6743 103.738Z" fill="#D6C5BB" stroke="#DC985A" stroke-width="0.501321" stroke-miterlimit="10" stroke-linecap="round" stroke-linejoin="round"/>
</g>
<g filter="url(#filter1_d_1571_1012)">
<path d="M90.345 135.259L94.3146 168.12C94.6113 170.526 95.3529 172.807 96.6047 174.76C97.6053 176.432 98.3498 178.371 98.6499 180.366L104.205 213.27C104.173 217.037 105.03 220.692 106.714 224.027C110.889 232.638 120.029 239.329 131.233 241.829C133.575 242.373 135.982 242.713 138.454 242.849C138.898 242.862 139.278 242.872 139.722 242.884C140.547 242.907 141.307 242.928 142.069 242.88C144.289 242.804 146.447 242.589 148.543 242.236C152.164 241.581 155.534 240.509 158.591 239.085C158.782 238.954 159.036 238.892 159.228 238.76C165.405 235.778 170.263 231.252 173.036 225.847C173.875 224.225 174.523 222.53 174.982 220.761C175.441 218.992 175.711 217.15 175.727 215.232L181.839 182.648C182.173 180.67 182.949 178.842 183.979 177.157C185.2 175.204 186.044 172.966 186.381 170.645L190.907 138.018L179.051 137.625L140.629 136.296L128.708 136.038L90.345 135.259Z" fill="#9E887F" stroke="#DC985A" stroke-width="0.373039" stroke-miterlimit="10" stroke-linecap="round" stroke-linejoin="round"/>
<path d="M161.247 224.976C160.184 230.702 166.875 234.38 170.401 230.023C171.427 228.681 172.39 227.337 173.1 225.849C173.938 224.228 174.587 222.533 175.046 220.764C175.44 219.13 175.708 217.425 175.723 215.712C175.726 215.37 175.792 215.097 175.794 214.823L181.775 182.716C182.109 180.738 182.885 178.909 183.914 177.225C185.136 175.271 185.98 173.033 186.316 170.713L189.964 144.502C190.437 141.089 188.053 138.009 184.82 137.852L182.411 137.786C180.318 137.728 178.405 138.978 177.563 141.01L176.592 143.313C176.399 143.719 176.268 144.127 176.201 144.536L161.247 224.976Z" fill="#B8AAA0" stroke="#DC985A" stroke-width="0.373039" stroke-miterlimit="10" stroke-linecap="round" stroke-linejoin="round"/>
<path d="M90.3432 135.26L94.3129 168.12C94.6095 170.526 95.3511 172.808 96.603 174.76C97.6035 176.432 98.348 178.371 98.6482 180.366L104.203 213.27C104.171 217.038 105.028 220.692 106.712 224.028C110.14 231.11 116.94 236.847 125.475 240.096C131.67 242.458 137.995 237.013 137.357 229.939L128.833 136.042L90.3432 135.26Z" fill="#796159" stroke="#DC985A" stroke-width="0.373039" stroke-miterlimit="10" stroke-linecap="round" stroke-linejoin="round"/>
<path d="M97.3831 135.384L100.821 163.639C101.057 165.701 101.738 167.638 102.802 169.38C103.302 170.216 103.676 171.049 103.985 171.948C104.233 172.64 104.417 173.398 104.537 174.155L109.307 202.447C109.279 205.667 110.077 208.84 111.448 211.687C114.939 218.772 122.312 224.387 131.425 226.692C134.082 227.382 136.933 227.803 139.849 227.883C152.784 228.237 163.935 222.171 168.577 213.254C170.059 210.486 170.847 207.356 170.874 204.136L176.123 176.119C176.256 175.369 176.452 174.621 176.712 173.943C177.037 173.061 177.425 172.181 177.939 171.373C179.031 169.69 179.682 167.789 180.016 165.743L183.933 137.69L140.693 136.23L113.616 135.692L97.3831 135.384Z" fill="#623011" stroke="#DC985A" stroke-width="0.373039" stroke-miterlimit="10" stroke-linecap="round" stroke-linejoin="round"/>
<path d="M97.3822 135.383L100.819 163.775C101.055 165.837 101.8 167.776 102.8 169.516C102.8 169.516 102.8 169.516 102.799 169.585C103.799 171.325 105.117 172.937 106.757 174.01C112.496 177.799 119.194 180.655 126.6 182.366C130.968 183.376 135.465 183.979 140.157 184.108C152.648 184.451 164.154 181.409 173.268 176.109C174.989 175.128 176.523 173.732 177.552 171.978C177.681 171.776 177.809 171.574 177.938 171.372C179.03 169.758 179.617 167.856 179.887 165.876L183.804 137.823L140.564 136.362L113.487 135.825L97.3822 135.383Z" fill="#A15D35" stroke="#DC985A" stroke-width="0.373039" stroke-miterlimit="10" stroke-linecap="round" stroke-linejoin="round"/>
<path d="M97.384 135.383L100.821 163.775C101.057 165.837 101.802 167.776 102.802 169.516C103.239 170.282 103.612 171.114 103.922 172.014C104.17 172.706 104.353 173.464 104.474 174.221L109.243 202.513C109.216 205.732 110.014 208.906 111.385 211.753C113.504 216.059 117.024 219.856 121.566 222.652C125.73 225.233 130.834 221.605 130.244 216.45L122.366 143.537L113.49 135.756L97.384 135.383Z" fill="#29150D" stroke="#DC985A" stroke-width="0.373039" stroke-miterlimit="10" stroke-linecap="round" stroke-linejoin="round"/>
<path d="M97.3828 135.383L100.82 163.775C101.056 165.837 101.8 167.776 102.8 169.516C102.8 169.516 102.8 169.516 102.8 169.585C103.8 171.325 105.118 172.937 106.758 174.01C112.497 177.799 119.195 180.655 126.601 182.365L122.428 143.539L113.552 135.758L97.3828 135.383Z" fill="#623011" stroke="#DC985A" stroke-width="0.373039" stroke-miterlimit="10" stroke-linecap="round" stroke-linejoin="round"/>
<path d="M89.9971 131.344C89.8485 148.812 110.905 163.641 137.591 165.333C138.542 165.359 139.429 165.452 140.38 165.478C168.342 166.245 191.166 152.209 191.32 134.193C191.474 116.108 168.898 100.895 140.936 100.128C114.749 99.4092 93.0822 111.628 90.2787 128.063C90.1432 129.087 90.007 130.18 89.9971 131.344Z" fill="#FFFAF4" stroke="#DC985A" stroke-width="0.373039" stroke-miterlimit="10" stroke-linecap="round" stroke-linejoin="round"/>
<path d="M89.9976 131.344C89.8548 148.127 109.393 162.503 134.613 165.045C136.324 165.229 137.858 163.832 137.874 161.983C137.874 161.983 137.874 161.983 137.874 161.914C138.017 145.131 118.479 130.755 93.2587 128.213C91.5479 128.029 90.0139 129.426 89.9976 131.344C89.9976 131.344 89.9982 131.275 89.9976 131.344Z" fill="#D1C9C3"/>
<path d="M89.9976 131.344C89.8548 148.127 109.393 162.503 134.613 165.045C136.324 165.229 137.858 163.832 137.874 161.983C137.874 161.983 137.874 161.983 137.874 161.914C138.017 145.131 118.479 130.755 93.2587 128.213C91.5479 128.029 90.0139 129.426 89.9976 131.344ZM89.9976 131.344C89.9982 131.275 89.9976 131.344 89.9976 131.344Z" stroke="#DC985A" stroke-width="0.373039" stroke-miterlimit="10" stroke-linecap="round" stroke-linejoin="round"/>
<path d="M98.5575 131.579C98.5371 133.976 98.9611 136.317 99.8936 138.536C100.328 139.644 100.889 140.755 101.514 141.869C107.643 152.04 122.737 159.512 140.491 159.999C158.181 160.484 173.395 153.844 179.757 144.015C179.886 143.813 179.951 143.678 180.079 143.476C180.594 142.6 181.109 141.723 181.434 140.773C182.34 138.605 182.867 136.29 182.888 133.892C183.015 118.89 164.224 106.179 140.954 105.54C140.383 105.525 139.813 105.509 139.242 105.493C116.728 105.424 98.6822 116.919 98.5575 131.579Z" fill="#796159" stroke="#DC985A" stroke-width="0.373039" stroke-miterlimit="10" stroke-linecap="round" stroke-linejoin="round"/>
<path d="M136.369 115.077C136.349 117.475 136.773 119.816 137.705 122.034C138.14 123.142 138.701 124.254 139.326 125.368C145.454 135.539 160.548 143.011 178.302 143.498C179.38 143.527 180.4 142.939 180.916 141.856C181.11 141.519 181.239 141.18 181.37 140.773C182.276 138.605 182.803 136.29 182.823 133.892C182.951 118.89 164.16 106.179 140.89 105.54C139.812 105.511 138.791 106.168 138.275 107.182C137.05 109.615 136.393 112.269 136.369 115.077Z" fill="#B8AAA0" stroke="#DC985A" stroke-width="0.373039" stroke-miterlimit="10" stroke-linecap="round" stroke-linejoin="round"/>
<path d="M101.452 141.799C106.267 149.742 116.488 156.052 129.15 158.661C132.759 159.376 136.497 159.822 140.428 159.929C152.348 160.256 163.155 157.333 170.871 152.406C174.633 150.042 177.638 147.178 179.695 143.946C179.695 143.946 179.695 143.946 179.695 143.877C180.916 141.992 180.938 139.458 179.75 137.507C173.621 127.267 158.527 119.795 140.71 119.306C137.159 119.209 133.733 119.389 130.431 119.847C119.066 121.385 109.451 125.917 103.816 132.203C102.92 133.206 102.086 134.28 101.38 135.357C100.285 137.245 100.263 139.848 101.452 141.799Z" fill="#623011" stroke="#DC985A" stroke-width="0.373039" stroke-miterlimit="10" stroke-linecap="round" stroke-linejoin="round"/>
<path d="M101.45 141.8C104.89 147.513 111.128 152.343 119.091 155.576C122.63 157.044 125.587 152.466 123.077 149.314C120.128 145.533 116.607 141.873 112.64 138.544C110.751 136.985 108.924 135.564 106.969 134.209C105.141 132.926 102.663 133.406 101.442 135.359C100.284 137.246 100.262 139.849 101.45 141.8Z" fill="#A15D35" stroke="#DC985A" stroke-width="0.373039" stroke-miterlimit="10" stroke-linecap="round" stroke-linejoin="round"/>
<path d="M140.646 119.305C135.574 119.165 132.792 125.53 135.99 129.865C141.32 137 149.508 143.666 159.426 148.323C160.563 148.834 161.7 149.345 162.775 149.785C168.526 152.135 174.946 150.393 178.731 145.29C179.052 144.887 179.373 144.417 179.631 143.944C179.695 143.809 179.756 144.153 179.867 138.538C179.871 138.058 179.749 137.507 179.499 137.089C173.242 127.119 158.273 119.788 140.71 119.306C140.773 119.308 140.71 119.306 140.646 119.305Z" fill="#29150D" stroke="#DC985A" stroke-width="0.373039" stroke-miterlimit="10" stroke-linecap="round" stroke-linejoin="round"/>
</g>
<defs>
<filter id="filter0_d_1571_1012" x="0.664528" y="0.65625" width="146.97" height="171.755" filterUnits="userSpaceOnUse" color-interpolation-filters="sRGB">
<feFlood flood-opacity="0" result="BackgroundImageFix"/>
<feColorMatrix in="SourceAlpha" type="matrix" values="0 0 0 0 0 0 0 0 0 0 0 0 0 0 0 0 0 0 127 0" result="hardAlpha"/>
<feOffset dy="6.29055"/>
<feGaussianBlur stdDeviation="3.14528"/>
<feComposite in2="hardAlpha" operator="out"/>
<feColorMatrix type="matrix" values="0 0 0 0 0 0 0 0 0 0 0 0 0 0 0 0 0 0 0.25 0"/>
<feBlend mode="normal" in2="BackgroundImageFix" result="effect1_dropShadow_1571_1012"/>
<feBlend mode="normal" in="SourceGraphic" in2="effect1_dropShadow_1571_1012" result="shape"/>
</filter>
<filter id="filter1_d_1571_1012" x="82.77" y="98.7383" width="115.118" height="158.116" filterUnits="userSpaceOnUse" color-interpolation-filters="sRGB">
<feFlood flood-opacity="0" result="BackgroundImageFix"/>
<feColorMatrix in="SourceAlpha" type="matrix" values="0 0 0 0 0 0 0 0 0 0 0 0 0 0 0 0 0 0 127 0" result="hardAlpha"/>
<feOffset dy="6.29055"/>
<feGaussianBlur stdDeviation="3.14527"/>
<feComposite in2="hardAlpha" operator="out"/>
<feColorMatrix type="matrix" values="0 0 0 0 0 0 0 0 0 0 0 0 0 0 0 0 0 0 0.25 0"/>
<feBlend mode="normal" in2="BackgroundImageFix" result="effect1_dropShadow_1571_1012"/>
<feBlend mode="normal" in="SourceGraphic" in2="effect1_dropShadow_1571_1012" result="shape"/>
</filter>
</defs>
</svg>
